<?xml version="1.0" encoding="utf-8"?>
<!-- Generator: Adobe Illustrator 26.0.1, SVG Export Plug-In . SVG Version: 6.00 Build 0)  -->
<svg version="1.1" id="Layer_1" xmlns="http://www.w3.org/2000/svg" xmlns:xlink="http://www.w3.org/1999/xlink" x="0px" y="0px"
	 viewBox="0 0 1366 768" style="enable-background:new 0 0 1366 768;" xml:space="preserve">
<style type="text/css">
	.st0{clip-path:url(#SVGID_00000168803091254052296680000008099917505293732284_);}
	.st1{fill:#FFFFFF;}
	.st2{fill:#4D4A77;}
	.st3{fill:#291713;}
	.st4{fill:#FFB345;}
	.st5{fill:#EB816D;}
	.st6{opacity:0.5;fill:#EB816D;}
	.st7{fill:#FFFBFD;}
	.st8{fill:#87706F;}
	.st9{clip-path:url(#SVGID_00000168803091254052296680000008099917505293732284_);fill:#87706F;}
	.st10{clip-path:url(#SVGID_00000113354712515802138570000017766851435367175829_);fill:#EB816D;}
	.st11{clip-path:url(#SVGID_00000065044979446194313090000016949269087045496490_);fill:#EB816D;}
	.st12{clip-path:url(#SVGID_00000088103083849515251040000006783487310019228547_);}
	.st13{fill:#353353;}
	.st14{clip-path:url(#SVGID_00000088103083849515251040000006783487310019228547_);fill:#87706F;}
	.st15{clip-path:url(#SVGID_00000168081364073711358830000018019627973884420503_);fill:#EB816D;}
	.st16{clip-path:url(#SVGID_00000139978256943244615560000006234413139171433600_);fill:#EB816D;}
</style>
<g>
	<defs>
		<circle id="SVGID_1_" cx="683" cy="385.5" r="339.5"/>
	</defs>
	<clipPath id="SVGID_00000137118314598916849480000006705110441124627120_">
		<use xlink:href="#SVGID_1_"  style="overflow:visible;"/>
	</clipPath>
	<g style="clip-path:url(#SVGID_00000137118314598916849480000006705110441124627120_);">
		<rect x="71.31" y="-337.28" class="st1" width="1230.44" height="1262.58"/>
		<g>
			<g>
				<rect x="584.64" y="1132.85" class="st2" width="53.91" height="827.44"/>
				<path class="st3" d="M642.14,1969.71c0,17.73-14.73,32.12-32.9,32.12h-92.88c-18.17,0-32.9-14.38-32.9-32.12l0,0
					c0-17.74,14.73-32.12,32.9-32.12h92.88C627.41,1937.59,642.14,1951.97,642.14,1969.71L642.14,1969.71z"/>
				<rect x="708.08" y="1132.85" class="st2" width="53.9" height="827.44"/>
				<rect x="584.64" y="1132.85" class="st2" width="53.91" height="428.83"/>
				<rect x="708.08" y="1132.85" class="st2" width="53.9" height="428.83"/>
				<path class="st3" d="M704.49,1969.71c0,17.73,14.73,32.12,32.9,32.12h92.87c18.17,0,32.9-14.38,32.9-32.12l0,0
					c0-17.74-14.73-32.12-32.9-32.12h-92.87C719.22,1937.59,704.49,1951.97,704.49,1969.71L704.49,1969.71z"/>
				<path class="st2" d="M574.9,1031.85c-0.05,1.12-0.09,2.24-0.09,3.37v146.92c0,47.33,39.51,85.7,88.23,85.7h21.01
					c48.73,0,88.24-38.37,88.24-85.7v-146.92c0-1.13-0.04-2.25-0.09-3.37H574.9z"/>
				<path class="st4" d="M775.81,1157.4l31.63-419.76c0-114.56-52.52-207.42-117.33-207.42h-27.93
					c-64.81,0-117.32,92.86-117.32,207.42l30.43,419.76H775.81z"/>
				<g>
					<path class="st5" d="M736.01,570.54c0,18.42-24.26,33.35-54.2,33.35l0,0c-29.93,0-54.19-14.93-54.19-33.35v-54.19
						c0-18.42,24.27-33.36,54.19-33.36l0,0c29.94,0,54.2,14.93,54.2,33.36V570.54z"/>
					<path class="st6" d="M681.81,482.99c-29.93,0-54.19,14.93-54.19,33.36v28.44c14.21,1.83,28.93,2.83,44.04,2.83h50.81
						c4.58,0,9.05-0.25,13.54-0.42v-30.84C736.01,497.92,711.76,482.99,681.81,482.99z"/>
				</g>
				<g>
					<path class="st5" d="M411.43,825.71c-5.86,28.81-11.13,60.01-15.79,93.76c-21.85,158.56-22.11,313.06-22.11,319.56
						c0,18.56,15.05,33.61,33.62,33.61l0,0c18.56,0,33.62-15.05,33.62-33.61c0.02-128.04,12.92-289.55,39.68-413.33H411.43z"/>
					<path class="st4" d="M474.39,855.59c7.92-41.66,17.27-79.98,28.09-112.58c21.23-64,48.11-105.95,80.88-107.83
						c18.53-1.06,32.71-16.94,31.64-35.47c-1.06-18.53-16.86-32.68-35.47-31.64c-82.98,4.74-140.08,98.99-173.82,287.53H474.39z"/>
					<path class="st4" d="M373.53,742.57"/>
				</g>
				<g>
					<path class="st5" d="M943.69,825.71c5.86,28.81,11.13,60.01,15.79,93.76c21.85,158.56,22.1,313.06,22.1,319.56
						c0,18.56-15.06,33.61-33.61,33.61l0,0c-18.57,0-33.62-15.05-33.62-33.61c-0.02-128.04-12.92-289.55-39.67-413.33H943.69z"/>
					<path class="st4" d="M880.73,855.59C857.25,732.16,821.22,638,771.76,635.18c-18.53-1.06-32.71-16.94-31.64-35.47
						c1.06-18.53,16.85-32.68,35.47-31.64c82.98,4.74,140.08,98.99,173.83,287.53H880.73z"/>
				</g>
				<path class="st3" d="M666.89,328.12l-4.16-3.85c0.5-0.54,12.42-13.29,25.02-11.69c6.3,0.8,11.5,4.93,15.44,12.27l-4.99,2.69
					c-3.03-5.64-6.8-8.78-11.18-9.33C678.97,317.19,669.77,325.01,666.89,328.12z"/>
				<g>
					<path class="st5" d="M816.85,326.42c0,73.95-53.28,204.73-119.01,204.73H669.5c-65.73,0-119.02-130.78-119.02-204.73v-12.75
						c0-73.95,53.28-133.89,119.02-133.89h28.34c65.73,0,119.01,59.94,119.01,133.89V326.42z"/>
					<path class="st5" d="M558.98,285.11c-17.64,2.74-31.17,17.94-31.17,36.36c0,18.42,13.53,33.63,31.17,36.36V285.11z"/>
					<g>
						<path class="st3" d="M626.05,308.24c0,8.35-6.77,15.12-15.12,15.12l0,0c-8.34,0-15.11-6.77-15.11-15.12l0,0
							c0-8.34,6.76-15.11,15.11-15.11l0,0C619.28,293.14,626.05,299.9,626.05,308.24L626.05,308.24z"/>
						<path class="st3" d="M777.18,308.24c0,8.35-6.77,15.12-15.11,15.12l0,0c-8.34,0-15.11-6.77-15.11-15.12l0,0
							c0-8.34,6.77-15.11,15.11-15.11l0,0C770.41,293.14,777.18,299.9,777.18,308.24L777.18,308.24z"/>
						<path class="st7" d="M640.18,379.09c3.27,17.12,21.05,30.23,42.55,30.23c21.5,0,39.27-13.1,42.54-30.23H640.18z"/>
					</g>
					<path class="st3" d="M633.59,337.54h-35.86c-18.23,0-33.08-14.84-33.08-33.08c0-18.23,14.84-33.08,33.08-33.08h35.86
						c18.23,0,33.08,14.85,33.08,33.08C666.67,322.7,651.82,337.54,633.59,337.54z M597.73,277.05c-15.12,0-27.41,12.3-27.41,27.41
						c0,15.12,12.29,27.41,27.41,27.41h35.86c15.11,0,27.41-12.29,27.41-27.41c0-15.11-12.29-27.41-27.41-27.41H597.73z"/>
					<path class="st3" d="M765.82,337.54h-35.85c-18.23,0-33.08-14.84-33.08-33.08c0-18.23,14.84-33.08,33.08-33.08h35.85
						c18.24,0,33.08,14.85,33.08,33.08C798.9,322.7,784.07,337.54,765.82,337.54z M729.97,277.05c-15.11,0-27.41,12.3-27.41,27.41
						c0,15.12,12.3,27.41,27.41,27.41h35.85c15.11,0,27.41-12.29,27.41-27.41c0-15.11-12.3-27.41-27.41-27.41H729.97z"/>
					
						<rect x="553.32" y="283.29" transform="matrix(0.5545 -0.8322 0.8322 0.5545 0.6775 595.0813)" class="st3" width="5.67" height="27.24"/>
					<path class="st8" d="M817.98,289.17c0,63.23-62.67,114.48-139.98,114.48l0,0c-77.32,0-139.98-51.25-139.98-114.48v-57.24
						c0-63.22,62.67-114.48,139.98-114.48l0,0c77.31,0,139.98,51.25,139.98,114.48V289.17z"/>
					<path class="st5" d="M816.85,340.6c0,73.95-53.28,133.89-119.01,133.89H669.5c-65.73,0-119.01-59.94-119.01-133.89v-12.75
						c0-73.95,53.28-133.9,119.01-133.9h28.34c65.73,0,119.01,59.95,119.01,133.9V340.6z"/>
					<g>
						<path class="st3" d="M626.04,309.2c0,8.34-6.77,15.11-15.11,15.11l0,0c-8.34,0-15.11-6.77-15.11-15.11l0,0
							c0-8.35,6.77-15.11,15.11-15.11l0,0C619.27,294.09,626.04,300.85,626.04,309.2L626.04,309.2z"/>
						<path class="st3" d="M777.17,309.2c0,8.34-6.76,15.11-15.11,15.11l0,0c-8.35,0-15.12-6.77-15.12-15.11l0,0
							c0-8.35,6.77-15.11,15.12-15.11l0,0C770.41,294.09,777.17,300.85,777.17,309.2L777.17,309.2z"/>
						<path class="st7" d="M640.17,380.04c3.28,17.13,21.05,30.22,42.55,30.22s39.27-13.1,42.55-30.22H640.17z"/>
					</g>
					<path class="st5" d="M556.15,285.11c-17.64,2.74-31.17,17.94-31.17,36.36c0,18.41,13.52,33.62,31.17,36.35V285.11z"/>
					<path class="st5" d="M805,357.83c17.65-2.73,31.16-17.94,31.16-36.35c0-18.42-13.52-33.62-31.16-36.36V357.83z"/>
					<path class="st8" d="M840.72,169.87c0,32.08-26.01,58.09-58.1,58.09H672.56c-32.09,0-58.1-26.01-58.1-58.09l0,0
						c0-32.08,26.01-58.09,58.1-58.09h110.06C814.71,111.78,840.72,137.78,840.72,169.87L840.72,169.87z"/>
				</g>
			</g>
		</g>
	</g>
	<path style="clip-path:url(#SVGID_00000137118314598916849480000006705110441124627120_);fill:#87706F;" d="M832.42,180.88
		c-3.04,31.94-31.39,55.37-63.34,52.33l-109.56-10.43c-31.95-3.04-55.37-31.39-52.33-63.33l0,0c3.04-31.94,31.39-55.36,63.34-52.32
		l109.56,10.43C812.03,120.58,835.46,148.94,832.42,180.88L832.42,180.88z"/>
	<path style="clip-path:url(#SVGID_00000137118314598916849480000006705110441124627120_);fill:#87706F;" d="M841.09,160.01
		l-8.28-57.62L697,121.91c-25.81,3.71-43.85,26.78-40.3,51.53l7.14,49.68c0.52,0.12,1.04,0.35,1.54,0.71
		c0.47,0.34,0.96,0.66,1.44,0.99c0.25,0.04,0.5,0.1,0.74,0.19c0.86,0.33,1.73,0.55,2.6,0.71c0.61-1.75,2.12-3.14,4.52-3.14h12.95
		c3.02,0,4.62,2.2,4.81,4.53l108.34-15.58C826.61,207.83,844.65,184.76,841.09,160.01z"/>
	<g style="clip-path:url(#SVGID_00000137118314598916849480000006705110441124627120_);">
		<defs>
			<polygon id="SVGID_00000085941724738029366830000012767013334745278336_" points="969.3,634.83 807.45,714 821.26,922.57 
				969.3,898.88 			"/>
		</defs>
		<clipPath id="SVGID_00000100376135091033726090000014196348598537251242_">
			<use xlink:href="#SVGID_00000085941724738029366830000012767013334745278336_"  style="overflow:visible;"/>
		</clipPath>
		<path style="clip-path:url(#SVGID_00000100376135091033726090000014196348598537251242_);fill:#EB816D;" d="M880.73,855.59
			C857.25,732.16,821.22,638,771.76,635.18c-18.53-1.06-32.71-16.94-31.64-35.47c1.06-18.53,16.85-32.68,35.47-31.64
			c82.98,4.74,140.08,98.99,173.83,287.53H880.73z"/>
	</g>
	<g style="clip-path:url(#SVGID_00000137118314598916849480000006705110441124627120_);">
		<defs>
			<polygon id="SVGID_00000032633687691123106440000000109940036772929166_" points="428.99,686.65 611.59,750.47 510.39,939.24 
				348.64,939.24 			"/>
		</defs>
		<clipPath id="SVGID_00000177460752393648380540000002189791412285396112_">
			<use xlink:href="#SVGID_00000032633687691123106440000000109940036772929166_"  style="overflow:visible;"/>
		</clipPath>
		<path style="clip-path:url(#SVGID_00000177460752393648380540000002189791412285396112_);fill:#EB816D;" d="M474.39,855.59
			c7.92-41.66,17.27-79.98,28.09-112.58c21.23-64,48.11-105.95,80.88-107.83c18.53-1.06,32.71-16.94,31.64-35.47
			c-1.06-18.53-16.86-32.68-35.47-31.64c-82.98,4.74-140.08,98.99-173.82,287.53H474.39z"/>
	</g>
</g>
<g>
	<defs>
		<circle id="SVGID_00000125604489856567392330000012070750164999629465_" cx="683" cy="-610.5" r="339.5"/>
	</defs>
	<clipPath id="SVGID_00000159450726732163016700000011378134469778553240_">
		<use xlink:href="#SVGID_00000125604489856567392330000012070750164999629465_"  style="overflow:visible;"/>
	</clipPath>
	<g style="clip-path:url(#SVGID_00000159450726732163016700000011378134469778553240_);">
		<rect x="71.31" y="-1333.28" class="st13" width="1230.44" height="1262.58"/>
		<g>
			<g>
				<rect x="584.64" y="136.85" class="st2" width="53.91" height="827.44"/>
				<path class="st3" d="M642.14,973.71c0,17.73-14.73,32.12-32.9,32.12h-92.88c-18.17,0-32.9-14.38-32.9-32.12l0,0
					c0-17.74,14.73-32.12,32.9-32.12h92.88C627.41,941.59,642.14,955.97,642.14,973.71L642.14,973.71z"/>
				<rect x="708.08" y="136.85" class="st2" width="53.9" height="827.44"/>
				<rect x="584.64" y="136.85" class="st2" width="53.91" height="428.83"/>
				<rect x="708.08" y="136.85" class="st2" width="53.9" height="428.83"/>
				<path class="st3" d="M704.49,973.71c0,17.73,14.73,32.12,32.9,32.12h92.87c18.17,0,32.9-14.38,32.9-32.12l0,0
					c0-17.74-14.73-32.12-32.9-32.12h-92.87C719.22,941.59,704.49,955.97,704.49,973.71L704.49,973.71z"/>
				<path class="st2" d="M574.9,35.85c-0.05,1.12-0.09,2.24-0.09,3.37v146.92c0,47.33,39.51,85.7,88.23,85.7h21.01
					c48.73,0,88.24-38.37,88.24-85.7V39.22c0-1.13-0.04-2.25-0.09-3.37H574.9z"/>
				<path class="st4" d="M775.81,161.4l31.63-419.76c0-114.56-52.52-207.42-117.33-207.42h-27.93
					c-64.81,0-117.32,92.86-117.32,207.42l30.43,419.76H775.81z"/>
				<g>
					<path class="st5" d="M736.01-425.46c0,18.42-24.26,33.35-54.2,33.35l0,0c-29.93,0-54.19-14.93-54.19-33.35v-54.19
						c0-18.42,24.27-33.36,54.19-33.36l0,0c29.94,0,54.2,14.93,54.2,33.36V-425.46z"/>
					<path class="st6" d="M681.81-513.01c-29.93,0-54.19,14.93-54.19,33.36v28.44c14.21,1.83,28.93,2.83,44.04,2.83h50.81
						c4.58,0,9.05-0.25,13.54-0.42v-30.84C736.01-498.08,711.76-513.01,681.81-513.01z"/>
				</g>
				<g>
					<path class="st5" d="M411.43-170.29c-5.86,28.81-11.13,60.01-15.79,93.76c-21.85,158.56-22.11,313.06-22.11,319.56
						c0,18.56,15.05,33.61,33.62,33.61l0,0c18.56,0,33.62-15.05,33.62-33.61c0.02-128.04,12.92-289.55,39.68-413.33H411.43z"/>
					<path class="st4" d="M474.39-140.41c7.92-41.66,17.27-79.98,28.09-112.58c21.23-64,48.11-105.95,80.88-107.83
						c18.53-1.06,32.71-16.94,31.64-35.47c-1.06-18.53-16.86-32.68-35.47-31.64c-82.98,4.74-140.08,98.99-173.82,287.53H474.39z"/>
					<path class="st4" d="M373.53-253.43"/>
				</g>
				<g>
					<path class="st5" d="M943.69-170.29c5.86,28.81,11.13,60.01,15.79,93.76c21.85,158.56,22.1,313.06,22.1,319.56
						c0,18.56-15.06,33.61-33.61,33.61l0,0c-18.57,0-33.62-15.05-33.62-33.61c-0.02-128.04-12.92-289.55-39.67-413.33H943.69z"/>
					<path class="st4" d="M880.73-140.41C857.25-263.84,821.22-358,771.76-360.82c-18.53-1.06-32.71-16.94-31.64-35.47
						c1.06-18.53,16.85-32.68,35.47-31.64c82.98,4.74,140.08,98.99,173.83,287.53H880.73z"/>
				</g>
				<path class="st3" d="M666.89-667.88l-4.16-3.85c0.5-0.54,12.42-13.29,25.02-11.69c6.3,0.8,11.5,4.93,15.44,12.27l-4.99,2.69
					c-3.03-5.64-6.8-8.78-11.18-9.33C678.97-678.81,669.77-670.99,666.89-667.88z"/>
				<g>
					<path class="st5" d="M816.85-669.58c0,73.95-53.28,204.73-119.01,204.73H669.5c-65.73,0-119.02-130.78-119.02-204.73v-12.75
						c0-73.95,53.28-133.89,119.02-133.89h28.34c65.73,0,119.01,59.94,119.01,133.89V-669.58z"/>
					<path class="st5" d="M558.98-710.89c-17.64,2.74-31.17,17.94-31.17,36.36c0,18.42,13.53,33.63,31.17,36.36V-710.89z"/>
					<path class="st5" d="M808.35-652.35c17.64-2.73,31.17-17.94,31.17-36.35c0-18.42-13.52-33.62-31.17-36.36V-652.35z"/>
					<g>
						<path class="st3" d="M626.05-687.76c0,8.35-6.77,15.12-15.12,15.12l0,0c-8.34,0-15.11-6.77-15.11-15.12l0,0
							c0-8.34,6.76-15.11,15.11-15.11l0,0C619.28-702.86,626.05-696.1,626.05-687.76L626.05-687.76z"/>
						<path class="st3" d="M777.18-687.76c0,8.35-6.77,15.12-15.11,15.12l0,0c-8.34,0-15.11-6.77-15.11-15.12l0,0
							c0-8.34,6.77-15.11,15.11-15.11l0,0C770.41-702.86,777.18-696.1,777.18-687.76L777.18-687.76z"/>
						<path class="st7" d="M640.18-616.91c3.27,17.12,21.05,30.23,42.55,30.23c21.5,0,39.27-13.1,42.54-30.23H640.18z"/>
					</g>
					<path class="st3" d="M633.59-658.46h-35.86c-18.23,0-33.08-14.84-33.08-33.08c0-18.23,14.84-33.08,33.08-33.08h35.86
						c18.23,0,33.08,14.85,33.08,33.08C666.67-673.3,651.82-658.46,633.59-658.46z M597.73-718.95c-15.12,0-27.41,12.3-27.41,27.41
						c0,15.12,12.29,27.41,27.41,27.41h35.86c15.11,0,27.41-12.29,27.41-27.41c0-15.11-12.29-27.41-27.41-27.41H597.73z"/>
					<path class="st3" d="M765.82-658.46h-35.85c-18.23,0-33.08-14.84-33.08-33.08c0-18.23,14.84-33.08,33.08-33.08h35.85
						c18.24,0,33.08,14.85,33.08,33.08C798.9-673.3,784.07-658.46,765.82-658.46z M729.97-718.95c-15.11,0-27.41,12.3-27.41,27.41
						c0,15.12,12.3,27.41,27.41,27.41h35.85c15.11,0,27.41-12.29,27.41-27.41c0-15.11-12.3-27.41-27.41-27.41H729.97z"/>
					<polygon class="st3" points="798.14,-689.6 794,-693.47 820.44,-721.8 824.59,-717.94 					"/>
					
						<rect x="553.32" y="-712.71" transform="matrix(0.5545 -0.8322 0.8322 0.5545 829.5229 151.3777)" class="st3" width="5.67" height="27.24"/>
					<path class="st8" d="M817.98-706.83c0,63.23-62.67,114.48-139.98,114.48l0,0c-77.32,0-139.98-51.25-139.98-114.48v-57.24
						c0-63.22,62.67-114.48,139.98-114.48l0,0c77.31,0,139.98,51.25,139.98,114.48V-706.83z"/>
					<path class="st5" d="M816.85-655.4c0,73.95-53.28,133.89-119.01,133.89H669.5c-65.73,0-119.01-59.94-119.01-133.89v-12.75
						c0-73.95,53.28-133.9,119.01-133.9h28.34c65.73,0,119.01,59.95,119.01,133.9V-655.4z"/>
					<g>
						<path class="st3" d="M626.04-686.8c0,8.34-6.77,15.11-15.11,15.11l0,0c-8.34,0-15.11-6.77-15.11-15.11l0,0
							c0-8.35,6.77-15.11,15.11-15.11l0,0C619.27-701.91,626.04-695.15,626.04-686.8L626.04-686.8z"/>
						<path class="st3" d="M777.17-686.8c0,8.34-6.76,15.11-15.11,15.11l0,0c-8.35,0-15.12-6.77-15.12-15.11l0,0
							c0-8.35,6.77-15.11,15.12-15.11l0,0C770.41-701.91,777.17-695.15,777.17-686.8L777.17-686.8z"/>
						<path class="st7" d="M640.17-615.96c3.28,17.13,21.05,30.22,42.55,30.22s39.27-13.1,42.55-30.22H640.17z"/>
					</g>
					<path class="st5" d="M556.15-710.89c-17.64,2.74-31.17,17.94-31.17,36.36c0,18.41,13.52,33.62,31.17,36.35V-710.89z"/>
					<path class="st5" d="M811.18-638.17c17.65-2.73,31.16-17.94,31.16-36.35c0-18.42-13.52-33.62-31.16-36.36V-638.17z"/>
					<path class="st8" d="M840.72-826.13c0,32.08-26.01,58.09-58.1,58.09H672.56c-32.09,0-58.1-26.01-58.1-58.09l0,0
						c0-32.08,26.01-58.09,58.1-58.09h110.06C814.71-884.22,840.72-858.22,840.72-826.13L840.72-826.13z"/>
				</g>
			</g>
		</g>
	</g>
	<path style="clip-path:url(#SVGID_00000159450726732163016700000011378134469778553240_);fill:#87706F;" d="M832.42-815.12
		c-3.04,31.94-31.39,55.37-63.34,52.33l-109.56-10.43c-31.95-3.04-55.37-31.39-52.33-63.33l0,0c3.04-31.94,31.39-55.36,63.34-52.32
		l109.56,10.43C812.03-875.42,835.46-847.06,832.42-815.12L832.42-815.12z"/>
	<path style="clip-path:url(#SVGID_00000159450726732163016700000011378134469778553240_);fill:#87706F;" d="M840.09-846.99
		c3.56,24.75-14.48,47.82-40.3,51.54l-135.8,19.52l-8.28-57.62c-3.56-24.75,14.49-47.82,40.3-51.53l135.81-19.52L840.09-846.99z"/>
	<g style="clip-path:url(#SVGID_00000159450726732163016700000011378134469778553240_);">
		<defs>
			<polygon id="SVGID_00000001660442473078886770000003424884623837120157_" points="969.3,-361.17 807.45,-282 821.26,-73.43 
				969.3,-97.12 			"/>
		</defs>
		<clipPath id="SVGID_00000085933017062279439660000007620012581257003659_">
			<use xlink:href="#SVGID_00000001660442473078886770000003424884623837120157_"  style="overflow:visible;"/>
		</clipPath>
		<path style="clip-path:url(#SVGID_00000085933017062279439660000007620012581257003659_);fill:#EB816D;" d="M880.73-140.41
			C857.25-263.84,821.22-358,771.76-360.82c-18.53-1.06-32.71-16.94-31.64-35.47c1.06-18.53,16.85-32.68,35.47-31.64
			c82.98,4.74,140.08,98.99,173.83,287.53H880.73z"/>
	</g>
	<g style="clip-path:url(#SVGID_00000159450726732163016700000011378134469778553240_);">
		<defs>
			<polygon id="SVGID_00000136399255796021977060000014567698455287980730_" points="428.99,-309.35 611.59,-245.53 510.39,-56.76 
				348.64,-56.76 			"/>
		</defs>
		<clipPath id="SVGID_00000054955112510940175420000007498042831523897994_">
			<use xlink:href="#SVGID_00000136399255796021977060000014567698455287980730_"  style="overflow:visible;"/>
		</clipPath>
		<path style="clip-path:url(#SVGID_00000054955112510940175420000007498042831523897994_);fill:#EB816D;" d="M474.39-140.41
			c7.92-41.66,17.27-79.98,28.09-112.58c21.23-64,48.11-105.95,80.88-107.83c18.53-1.06,32.71-16.94,31.64-35.47
			c-1.06-18.53-16.86-32.68-35.47-31.64c-82.98,4.74-140.08,98.99-173.82,287.53H474.39z"/>
	</g>
</g>
</svg>
