<?xml version="1.0" encoding="utf-8"?>
<!-- Generator: Adobe Illustrator 26.0.1, SVG Export Plug-In . SVG Version: 6.00 Build 0)  -->
<svg version="1.1" id="Layer_1" xmlns="http://www.w3.org/2000/svg" xmlns:xlink="http://www.w3.org/1999/xlink" x="0px" y="0px"
	 viewBox="0 0 145.75 102.27" style="enable-background:new 0 0 145.75 102.27;" xml:space="preserve">
<style type="text/css">
	.st0{fill:#EB816D;}
	.st1{fill:#878686;}
	.st2{fill:#291713;}
	.st3{fill:#FFD15C;}
	.st4{opacity:0.5;fill:#EB816D;}
	.st5{fill:#FFFBFD;}
	.st6{fill:#87706F;}
	.st7{clip-path:url(#SVGID_00000109024322572456867040000013235203866250891199_);fill:#EB816D;}
	.st8{clip-path:url(#SVGID_00000161604632636394864960000007017969701150177713_);fill:#EB816D;}
	.st9{fill:#FFFFFF;}
</style>
<desc>Created with Sketch.</desc>
<path class="st0" d="M15.22,134.21"/>
<g>
	<g>
		<g>
			<g>
				<rect x="16.05" y="54.87" class="st1" width="2.44" height="37.51"/>
				<path class="st2" d="M18.65,92.81c0,0.8-0.67,1.46-1.49,1.46h-4.21c-0.82,0-1.49-0.65-1.49-1.46l0,0c0-0.8,0.67-1.46,1.49-1.46
					h4.21C17.98,91.35,18.65,92,18.65,92.81L18.65,92.81z"/>
				<rect x="21.64" y="54.87" class="st1" width="2.44" height="37.51"/>
				<rect x="16.05" y="54.87" class="st1" width="2.44" height="19.44"/>
				<rect x="21.64" y="54.87" class="st1" width="2.44" height="19.44"/>
				<path class="st2" d="M21.48,92.81c0,0.8,0.67,1.46,1.49,1.46h4.21c0.82,0,1.49-0.65,1.49-1.46l0,0c0-0.8-0.67-1.46-1.49-1.46
					h-4.21C22.15,91.35,21.48,92,21.48,92.81L21.48,92.81z"/>
				<path class="st1" d="M15.6,50.3c0,0.05,0,0.1,0,0.15v6.66c0,2.15,1.79,3.88,4,3.88h0.95c2.21,0,4-1.74,4-3.88v-6.66
					c0-0.05,0-0.1,0-0.15H15.6z"/>
				<path class="st3" d="M24.71,55.99l1.43-19.03c0-5.19-2.38-9.4-5.32-9.4h-1.27c-2.94,0-5.32,4.21-5.32,9.4l1.38,19.03H24.71z"/>
				<g>
					<path class="st0" d="M22.91,29.39c0,0.83-1.1,1.51-2.46,1.51l0,0c-1.36,0-2.46-0.68-2.46-1.51v-2.46c0-0.84,1.1-1.51,2.46-1.51
						l0,0c1.36,0,2.46,0.68,2.46,1.51V29.39z"/>
					<path class="st4" d="M20.45,25.42c-1.36,0-2.46,0.68-2.46,1.51v1.29c0.64,0.08,1.31,0.13,2,0.13h2.3
						c0.21,0,0.41-0.01,0.61-0.02v-1.4C22.91,26.1,21.81,25.42,20.45,25.42z"/>
				</g>
				<g>
					<path class="st0" d="M8.2,40.95c-0.27,1.31-0.5,2.72-0.72,4.25c-0.99,7.19-1,14.19-1,14.48c0,0.84,0.68,1.52,1.52,1.52l0,0
						c0.84,0,1.52-0.68,1.52-1.52c0-5.8,0.59-13.12,1.8-18.74H8.2z"/>
					<path class="st3" d="M11.05,42.31c0.36-1.89,0.78-3.63,1.27-5.1c0.96-2.9,2.18-4.8,3.67-4.89c0.84-0.05,1.48-0.77,1.43-1.61
						c-0.05-0.84-0.76-1.48-1.61-1.43c-3.76,0.21-6.35,4.49-7.88,13.03H11.05z"/>
					<path class="st3" d="M6.48,37.18"/>
				</g>
				<g>
					<path class="st0" d="M32.32,40.95c0.27,1.31,0.5,2.72,0.72,4.25c0.99,7.19,1,14.19,1,14.48c0,0.84-0.68,1.52-1.52,1.52l0,0
						c-0.84,0-1.52-0.68-1.52-1.52c0-5.8-0.59-13.12-1.8-18.74H32.32z"/>
					<path class="st3" d="M29.47,42.31c-1.06-5.59-2.7-9.86-4.94-9.99c-0.84-0.05-1.48-0.77-1.43-1.61
						c0.05-0.84,0.76-1.48,1.61-1.43c3.76,0.21,6.35,4.49,7.88,13.03H29.47z"/>
				</g>
				<path class="st2" d="M19.77,18.4l-0.19-0.17c0.02-0.02,0.56-0.6,1.13-0.53c0.29,0.04,0.52,0.22,0.7,0.56l-0.23,0.12
					c-0.14-0.26-0.31-0.4-0.51-0.42C20.32,17.9,19.91,18.26,19.77,18.4z"/>
				<g>
					<path class="st0" d="M26.57,18.32c0,3.35-2.42,9.28-5.39,9.28h-1.28c-2.98,0-5.39-5.93-5.39-9.28v-0.58
						c0-3.35,2.42-6.07,5.39-6.07h1.28c2.98,0,5.39,2.72,5.39,6.07V18.32z"/>
					<path class="st0" d="M14.88,16.45c-0.8,0.12-1.41,0.81-1.41,1.65c0,0.83,0.61,1.52,1.41,1.65V16.45z"/>
					<path class="st0" d="M26.19,19.1c0.8-0.12,1.41-0.81,1.41-1.65c0-0.83-0.61-1.52-1.41-1.65V19.1z"/>
					<g>
						<path class="st2" d="M17.92,17.5c0,0.38-0.31,0.69-0.69,0.69l0,0c-0.38,0-0.68-0.31-0.68-0.69l0,0c0-0.38,0.31-0.68,0.68-0.68
							l0,0C17.62,16.81,17.92,17.12,17.92,17.5L17.92,17.5z"/>
						<path class="st2" d="M24.77,17.5c0,0.38-0.31,0.69-0.69,0.69l0,0c-0.38,0-0.69-0.31-0.69-0.69l0,0c0-0.38,0.31-0.68,0.69-0.68
							l0,0C24.47,16.81,24.77,17.12,24.77,17.5L24.77,17.5z"/>
						<path class="st5" d="M18.56,20.71c0.15,0.78,0.95,1.37,1.93,1.37c0.97,0,1.78-0.59,1.93-1.37H18.56z"/>
					</g>
					<path class="st2" d="M18.27,18.83h-1.63c-0.83,0-1.5-0.67-1.5-1.5c0-0.83,0.67-1.5,1.5-1.5h1.63c0.83,0,1.5,0.67,1.5,1.5
						C19.76,18.15,19.09,18.83,18.27,18.83z M16.64,16.08c-0.69,0-1.24,0.56-1.24,1.24c0,0.69,0.56,1.24,1.24,1.24h1.63
						c0.69,0,1.24-0.56,1.24-1.24c0-0.69-0.56-1.24-1.24-1.24H16.64z"/>
					<path class="st2" d="M24.26,18.83h-1.63c-0.83,0-1.5-0.67-1.5-1.5c0-0.83,0.67-1.5,1.5-1.5h1.63c0.83,0,1.5,0.67,1.5,1.5
						C25.76,18.15,25.09,18.83,24.26,18.83z M22.63,16.08c-0.68,0-1.24,0.56-1.24,1.24c0,0.69,0.56,1.24,1.24,1.24h1.63
						c0.69,0,1.24-0.56,1.24-1.24c0-0.69-0.56-1.24-1.24-1.24H22.63z"/>
					
						<rect x="25.35" y="16.56" transform="matrix(0.6829 -0.7305 0.7305 0.6829 -3.8706 24.4506)" class="st2" width="1.76" height="0.26"/>
					
						<rect x="14.63" y="16.37" transform="matrix(0.5545 -0.8322 0.8322 0.5545 -7.56 19.8447)" class="st2" width="0.26" height="1.23"/>
					<path class="st6" d="M26.62,16.63c0,2.87-2.84,5.19-6.35,5.19l0,0c-3.5,0-6.35-2.32-6.35-5.19v-2.59
						c0-2.87,2.84-5.19,6.35-5.19l0,0c3.5,0,6.35,2.32,6.35,5.19V16.63z"/>
					<path class="st0" d="M26.57,18.96c0,3.35-2.41,6.07-5.39,6.07h-1.28c-2.98,0-5.39-2.72-5.39-6.07v-0.58
						c0-3.35,2.42-6.07,5.39-6.07h1.28c2.98,0,5.39,2.72,5.39,6.07V18.96z"/>
					<g>
						<path class="st2" d="M17.92,17.54c0,0.38-0.31,0.69-0.69,0.69l0,0c-0.38,0-0.68-0.31-0.68-0.69l0,0
							c0-0.38,0.31-0.68,0.68-0.68l0,0C17.62,16.86,17.92,17.16,17.92,17.54L17.92,17.54z"/>
						<path class="st2" d="M24.77,17.54c0,0.38-0.31,0.69-0.68,0.69l0,0c-0.38,0-0.69-0.31-0.69-0.69l0,0
							c0-0.38,0.31-0.68,0.69-0.68l0,0C24.47,16.86,24.77,17.16,24.77,17.54L24.77,17.54z"/>
						<path class="st5" d="M18.56,20.75c0.15,0.78,0.95,1.37,1.93,1.37s1.78-0.59,1.93-1.37H18.56z"/>
					</g>
					<path class="st0" d="M14.76,16.45c-0.8,0.12-1.41,0.81-1.41,1.65c0,0.83,0.61,1.52,1.41,1.65V16.45z"/>
					<path class="st0" d="M26.32,19.74c0.8-0.12,1.41-0.81,1.41-1.65c0-0.83-0.61-1.52-1.41-1.65V19.74z"/>
					<path class="st6" d="M27.65,11.23c0,1.45-1.18,2.63-2.63,2.63h-4.99c-1.45,0-2.63-1.18-2.63-2.63l0,0
						c0-1.45,1.18-2.63,2.63-2.63h4.99C26.48,8.59,27.65,9.77,27.65,11.23L27.65,11.23z"/>
				</g>
			</g>
		</g>
	</g>
	<path class="st6" d="M27.28,11.72c-0.14,1.45-1.42,2.51-2.87,2.37l-4.97-0.47c-1.45-0.14-2.51-1.42-2.37-2.87l0,0
		c0.14-1.45,1.42-2.51,2.87-2.37l4.97,0.47C26.35,8.99,27.42,10.28,27.28,11.72L27.28,11.72z"/>
	<path class="st6" d="M27.63,10.28c0.16,1.12-0.66,2.17-1.83,2.34l-6.16,0.88l-0.38-2.61c-0.16-1.12,0.66-2.17,1.83-2.34l6.16-0.88
		L27.63,10.28z"/>
	<g>
		<defs>
			<polygon id="SVGID_1_" points="33.48,32.3 26.15,35.89 26.77,45.34 33.48,44.27 			"/>
		</defs>
		<clipPath id="SVGID_00000116913601968255960770000010060082761543249822_">
			<use xlink:href="#SVGID_1_"  style="overflow:visible;"/>
		</clipPath>
		<path style="clip-path:url(#SVGID_00000116913601968255960770000010060082761543249822_);fill:#EB816D;" d="M29.47,42.31
			c-1.06-5.59-2.7-9.86-4.94-9.99c-0.84-0.05-1.48-0.77-1.43-1.61c0.05-0.84,0.76-1.48,1.61-1.43c3.76,0.21,6.35,4.49,7.88,13.03
			H29.47z"/>
	</g>
	<g>
		<defs>
			<polygon id="SVGID_00000052103247086046704770000011811040507320403350_" points="8.99,34.65 17.27,37.54 12.68,46.1 5.35,46.1 
							"/>
		</defs>
		<clipPath id="SVGID_00000031174311433819137730000001516129458250955707_">
			<use xlink:href="#SVGID_00000052103247086046704770000011811040507320403350_"  style="overflow:visible;"/>
		</clipPath>
		<path style="clip-path:url(#SVGID_00000031174311433819137730000001516129458250955707_);fill:#EB816D;" d="M11.05,42.31
			c0.36-1.89,0.78-3.63,1.27-5.1c0.96-2.9,2.18-4.8,3.67-4.89c0.84-0.05,1.48-0.77,1.43-1.61c-0.05-0.84-0.76-1.48-1.61-1.43
			c-3.76,0.21-6.35,4.49-7.88,13.03H11.05z"/>
	</g>
</g>
<g>
	<g>
		<path class="st9" d="M42.03,58.78c-0.27,0-0.51-0.09-0.7-0.28c-0.2-0.19-0.3-0.41-0.3-0.69V33.81c0-0.27,0.1-0.5,0.3-0.69
			c0.2-0.19,0.43-0.28,0.7-0.28h4.93c0.44,0,0.78,0.12,1,0.37c0.22,0.25,0.37,0.42,0.44,0.52l5.93,10.3l5.93-10.3
			c0.07-0.1,0.22-0.27,0.45-0.52c0.22-0.25,0.56-0.37,1-0.37h4.93c0.27,0,0.5,0.09,0.68,0.28c0.19,0.19,0.28,0.41,0.28,0.69v24.01
			c0,0.27-0.09,0.5-0.28,0.69c-0.18,0.18-0.41,0.28-0.68,0.28h-5.56c-0.27,0-0.5-0.09-0.69-0.28c-0.18-0.19-0.28-0.41-0.28-0.69
			V45.81l-3.33,5.85c-0.12,0.2-0.28,0.4-0.48,0.59c-0.2,0.2-0.48,0.3-0.85,0.3h-2.26c-0.35,0-0.62-0.1-0.81-0.3
			c-0.2-0.2-0.36-0.39-0.48-0.59l-3.33-5.85v12.01c0,0.27-0.09,0.5-0.28,0.69c-0.19,0.18-0.41,0.28-0.69,0.28H42.03z"/>
		<path class="st9" d="M72.82,58.78c-0.27,0-0.5-0.09-0.68-0.28c-0.19-0.19-0.28-0.41-0.28-0.69V40.48c0-0.27,0.09-0.5,0.28-0.69
			c0.18-0.19,0.41-0.28,0.68-0.28h5.37c0.27,0,0.5,0.09,0.69,0.28c0.19,0.19,0.28,0.41,0.28,0.69v1.37c0.74-0.72,1.59-1.28,2.54-1.7
			c0.95-0.42,1.99-0.63,3.13-0.63h1.67c0.27,0,0.51,0.09,0.7,0.28c0.2,0.19,0.3,0.41,0.3,0.69v4.78c0,0.27-0.1,0.51-0.3,0.7
			c-0.2,0.2-0.43,0.3-0.7,0.3h-4.15c-0.89,0-1.57,0.23-2.04,0.69c-0.47,0.46-0.7,1.13-0.7,2.02v8.86c0,0.27-0.09,0.5-0.28,0.69
			c-0.18,0.18-0.41,0.28-0.69,0.28H72.82z"/>
		<path class="st3" d="M90.68,58.78c-0.27,0-0.5-0.09-0.69-0.28c-0.19-0.19-0.28-0.41-0.28-0.69v-5.56c0-0.27,0.09-0.51,0.28-0.7
			s0.41-0.3,0.69-0.3h5.56c0.27,0,0.51,0.1,0.7,0.3c0.2,0.2,0.3,0.43,0.3,0.7v5.56c0,0.27-0.1,0.5-0.3,0.69
			c-0.2,0.18-0.43,0.28-0.7,0.28H90.68z"/>
		<path class="st3" d="M51.3,91.26c-2.59,0-4.75-0.36-6.46-1.09c-1.72-0.73-3-1.68-3.85-2.85c-0.85-1.17-1.3-2.42-1.35-3.72
			c0-0.22,0.07-0.41,0.22-0.56s0.33-0.22,0.56-0.22h5.89c0.35,0,0.62,0.05,0.82,0.17c0.2,0.11,0.41,0.27,0.63,0.46
			c0.22,0.27,0.48,0.52,0.78,0.76c0.3,0.24,0.68,0.42,1.15,0.56c0.47,0.14,1.01,0.2,1.63,0.2c1.14,0,2.01-0.15,2.63-0.46
			c0.62-0.31,0.93-0.73,0.93-1.28c0-0.42-0.17-0.77-0.5-1.04c-0.33-0.27-0.9-0.52-1.69-0.74c-0.79-0.22-1.87-0.46-3.22-0.7
			c-1.9-0.32-3.54-0.8-4.93-1.43c-1.38-0.63-2.44-1.48-3.17-2.56s-1.09-2.4-1.09-3.98c0-1.61,0.45-3.03,1.35-4.26
			c0.9-1.24,2.16-2.2,3.78-2.89c1.62-0.69,3.5-1.04,5.65-1.04c1.78,0,3.35,0.24,4.72,0.7c1.37,0.47,2.53,1.08,3.46,1.83
			c0.94,0.75,1.65,1.56,2.15,2.43c0.49,0.87,0.75,1.69,0.78,2.48c0,0.22-0.08,0.41-0.24,0.57c-0.16,0.16-0.34,0.24-0.54,0.24h-6.19
			c-0.3,0-0.55-0.05-0.76-0.15c-0.21-0.1-0.4-0.26-0.58-0.48c-0.12-0.35-0.43-0.65-0.93-0.93c-0.49-0.27-1.12-0.41-1.89-0.41
			c-0.84,0-1.48,0.14-1.93,0.43c-0.44,0.29-0.67,0.7-0.67,1.24c0,0.37,0.14,0.69,0.41,0.96c0.27,0.27,0.75,0.51,1.45,0.72
			s1.65,0.44,2.89,0.69c2.35,0.35,4.24,0.84,5.69,1.48c1.44,0.64,2.5,1.48,3.17,2.52c0.67,1.04,1,2.33,1,3.89
			c0,1.75-0.51,3.26-1.52,4.52c-1.01,1.26-2.4,2.23-4.17,2.91C55.59,90.92,53.57,91.26,51.3,91.26z"/>
		<path class="st3" d="M75.31,91.26c-3.09,0-5.54-0.8-7.35-2.39c-1.82-1.59-2.75-4.03-2.8-7.32c0-0.1,0-0.23,0-0.39
			c0-0.16,0-0.28,0-0.35c0.07-2.05,0.52-3.79,1.35-5.21c0.83-1.42,1.99-2.5,3.48-3.24c1.49-0.74,3.25-1.11,5.28-1.11
			c2.27,0,4.16,0.45,5.65,1.35c1.49,0.9,2.61,2.1,3.35,3.59c0.74,1.5,1.11,3.17,1.11,5.02v1.04c0,0.25-0.1,0.47-0.3,0.67
			c-0.2,0.2-0.43,0.3-0.7,0.3H72.97c0,0.1,0,0.17,0,0.22c0,0.59,0.08,1.12,0.24,1.57c0.16,0.46,0.41,0.82,0.76,1.07
			c0.35,0.26,0.77,0.39,1.26,0.39c0.32,0,0.59-0.05,0.82-0.15s0.41-0.23,0.57-0.39c0.16-0.16,0.3-0.32,0.43-0.46
			c0.22-0.22,0.41-0.36,0.56-0.43c0.15-0.06,0.37-0.09,0.67-0.09h5.82c0.22,0,0.41,0.07,0.57,0.22c0.16,0.15,0.23,0.33,0.2,0.56
			c-0.02,0.44-0.23,0.98-0.63,1.61c-0.4,0.63-0.98,1.24-1.76,1.83s-1.77,1.09-2.98,1.48C78.28,91.07,76.89,91.26,75.31,91.26z
			 M72.97,79.07h4.59V79c0-0.67-0.09-1.24-0.26-1.71c-0.17-0.47-0.43-0.82-0.78-1.06c-0.35-0.23-0.77-0.35-1.26-0.35
			s-0.91,0.12-1.26,0.35c-0.35,0.24-0.61,0.59-0.78,1.06c-0.17,0.47-0.26,1.04-0.26,1.71V79.07z"/>
		<path class="st3" d="M94.39,91.26c-1.36,0-2.58-0.26-3.65-0.78c-1.07-0.52-1.91-1.22-2.52-2.09s-0.91-1.86-0.91-2.95
			c0-1.78,0.72-3.18,2.17-4.21c1.45-1.02,3.38-1.74,5.8-2.13l4.26-0.67v-0.26c0-0.77-0.12-1.34-0.35-1.72
			c-0.23-0.38-0.72-0.57-1.46-0.57c-0.52,0-0.94,0.1-1.26,0.3c-0.32,0.2-0.62,0.48-0.89,0.85c-0.25,0.27-0.57,0.41-0.96,0.41h-5.22
			c-0.27,0-0.48-0.07-0.63-0.22c-0.15-0.15-0.21-0.35-0.18-0.59c0.02-0.44,0.21-0.97,0.56-1.57c0.35-0.61,0.88-1.2,1.61-1.78
			c0.73-0.58,1.67-1.06,2.83-1.44s2.56-0.57,4.19-0.57c1.66,0,3.08,0.18,4.26,0.56c1.19,0.37,2.16,0.89,2.93,1.56
			s1.33,1.48,1.71,2.43c0.37,0.95,0.56,2.01,0.56,3.17v10.97c0,0.27-0.09,0.5-0.28,0.68c-0.19,0.19-0.41,0.28-0.69,0.28h-5.41
			c-0.25,0-0.47-0.09-0.67-0.28c-0.2-0.18-0.3-0.41-0.3-0.68v-1.19c-0.32,0.5-0.75,0.93-1.28,1.3c-0.53,0.37-1.15,0.67-1.85,0.89
			S95.25,91.26,94.39,91.26z M96.54,86.41c0.62,0,1.16-0.13,1.61-0.39c0.46-0.26,0.82-0.66,1.09-1.21c0.27-0.54,0.41-1.22,0.41-2.04
			v-0.26l-2.67,0.52c-0.91,0.17-1.56,0.43-1.93,0.76c-0.37,0.33-0.56,0.7-0.56,1.09c0,0.3,0.09,0.56,0.26,0.78s0.41,0.4,0.72,0.54
			C95.79,86.34,96.14,86.41,96.54,86.41z"/>
		<path class="st3" d="M111.84,90.89c-0.27,0-0.5-0.09-0.68-0.28c-0.19-0.18-0.28-0.41-0.28-0.68V72.59c0-0.27,0.09-0.5,0.28-0.69
			c0.18-0.19,0.41-0.28,0.68-0.28h5.37c0.27,0,0.5,0.09,0.69,0.28c0.19,0.18,0.28,0.41,0.28,0.69v1.33
			c0.64-0.74,1.49-1.37,2.56-1.89c1.06-0.52,2.27-0.78,3.63-0.78c1.33,0,2.54,0.31,3.63,0.93c1.09,0.62,1.96,1.54,2.63,2.78
			s1,2.79,1,4.67v10.3c0,0.27-0.1,0.5-0.3,0.68c-0.2,0.19-0.43,0.28-0.7,0.28h-5.85c-0.27,0-0.5-0.09-0.69-0.28
			c-0.18-0.18-0.28-0.41-0.28-0.68V79.89c0-0.91-0.22-1.62-0.67-2.11c-0.44-0.49-1.07-0.74-1.89-0.74s-1.46,0.25-1.93,0.74
			c-0.47,0.5-0.7,1.2-0.7,2.11v10.04c0,0.27-0.09,0.5-0.28,0.68c-0.18,0.19-0.41,0.28-0.69,0.28H111.84z"/>
		<path class="st9" d="M136.07,90.89c-0.27,0-0.5-0.09-0.69-0.28c-0.19-0.18-0.28-0.41-0.28-0.68v-5.56c0-0.27,0.09-0.51,0.28-0.7
			c0.19-0.2,0.41-0.3,0.69-0.3h5.56c0.27,0,0.51,0.1,0.7,0.3c0.2,0.2,0.3,0.43,0.3,0.7v5.56c0,0.27-0.1,0.5-0.3,0.68
			c-0.2,0.19-0.43,0.28-0.7,0.28H136.07z"/>
	</g>
</g>
</svg>
