<?xml version="1.0" encoding="utf-8"?>
<!-- Generator: Adobe Illustrator 26.0.1, SVG Export Plug-In . SVG Version: 6.00 Build 0)  -->
<svg version="1.1" id="Layer_1" xmlns="http://www.w3.org/2000/svg" xmlns:xlink="http://www.w3.org/1999/xlink" x="0px" y="0px"
	 viewBox="0 0 144 180" style="enable-background:new 0 0 144 180;" xml:space="preserve">
<style type="text/css">
	.st0{fill:#F27072;}
	.st1{fill:#3A3B3A;}
	.st2{fill:#FFFFFF;}
</style>
<g>
	<g>
		<path class="st0" d="M81.55,112.36c-5.55-1.03-10.01,4.83-11.27,9.62c-1.3,4.91,0.51,10.02,4.96,12.62
			c4.12,2.41,9.26,2.02,12.82-1.22c3.39-3.08,4.74-8.1,3.83-12.53c-0.59-2.85-2.19-5.57-4.62-7.21c-2.53-1.7-5.91-1.92-8.58-0.43
			c-2.11,1.18-0.22,4.42,1.89,3.24c3.47-1.94,6.68,1.6,7.52,4.69c0.8,2.92,0.13,6.31-1.82,8.66c-1.99,2.4-5.03,3.21-7.96,2.13
			c-3.08-1.14-4.91-4-4.72-7.26c0.12-2.03,1-4,2.19-5.63c0.98-1.36,2.87-3.43,4.76-3.08c0.99,0.18,2.02-0.27,2.31-1.31
			C83.11,113.75,82.55,112.55,81.55,112.36L81.55,112.36z"/>
	</g>
</g>
<g>
	<g>
		<path class="st0" d="M92.36,125.52c2.3-21.48,0.16-43.07,0.88-64.6c0.2-6.07,0.63-12.15,1.46-18.17c0.14-1.01-0.25-2-1.31-2.31
			c-0.87-0.25-2.17,0.31-2.31,1.31c-3.01,21.67-1.05,43.51-1.41,65.28c-0.1,6.17-0.41,12.34-1.07,18.48
			c-0.11,1.01,0.94,1.88,1.88,1.88C91.59,127.39,92.26,126.53,92.36,125.52L92.36,125.52z"/>
	</g>
</g>
<g>
	<g>
		<path class="st0" d="M90.93,42.44c0.43,8.76,1.73,17.48,3.91,25.97c1.09,4.24,2.4,8.41,3.92,12.52c1.51,4.09,3.15,8.13,4.35,12.32
			c1.33,4.63,2.07,9.47,1.08,14.24c1.23,0.17,2.46,0.33,3.68,0.5c-0.01-6.16-3.6-11.25-6.77-16.24c-3.41-5.36-5.98-11.12-7.62-17.26
			c-0.62-2.33-4.24-1.34-3.62,1c1.61,6.01,4.08,11.8,7.34,17.1c2.92,4.74,6.91,9.56,6.92,15.4c0,2.06,3.24,2.62,3.68,0.5
			c1.84-8.82-1.21-17.35-4.29-25.5c-3.12-8.28-5.66-16.69-7.18-25.42c-0.87-5-1.41-10.05-1.66-15.11
			C94.56,40.03,90.81,40.02,90.93,42.44L90.93,42.44z"/>
	</g>
</g>
<g>
	<g>
		<path class="st0" d="M91.69,60.98c-0.73,4.11-1.45,8.23-2.18,12.34c-0.16,0.93,0.17,1.83,1.09,2.21c0.8,0.34,1.94,0.08,2.34-0.77
			c0.92-1.93,1.84-3.85,2.75-5.78c-1.16-0.32-2.33-0.63-3.49-0.95c-0.42,3.16-0.84,6.32-1.27,9.47c-0.21,1.57,2.22,2.53,3.2,1.33
			c0.9-1.12,1.81-2.24,2.71-3.36c-1.07-0.44-2.13-0.88-3.2-1.33c-0.17,2.33-0.33,4.66-0.5,6.99c-0.13,1.86,2.65,2.55,3.49,0.95
			c0.6-1.14,1.2-2.28,1.81-3.42c-1.14-0.15-2.28-0.3-3.43-0.45c0.3,1.73-0.01,3.4-0.68,5c-0.54,1.3,1.06,2.76,2.31,2.31
			c1.49-0.54,2.61-1.4,3.45-2.76c-1.14-0.15-2.28-0.3-3.43-0.45c0.31,1.2,0.38,2.39,0.13,3.61c-0.27,1.39,0.85,2.69,2.31,2.31
			c1.03-0.27,1.81-0.73,2.64-1.39c-1.07-0.44-2.13-0.88-3.2-1.33c-0.13,1.94,0.12,3.88,0.74,5.73c0.52,1.55,2.53,1.83,3.43,0.45
			c-0.85,0.16-1.11,0.29-0.77,0.39c-0.15-0.22-0.2-0.22-0.16,0c-0.13,0.39-0.14,0.91-0.26,1.33c1.21,0,2.41,0,3.62,0
			c-2.55-7.26-5.2-14.48-7.96-21.65c-0.36-0.94-1.26-1.6-2.31-1.31c-0.9,0.25-1.68,1.35-1.31,2.31c2.76,7.18,5.41,14.4,7.96,21.65
			c0.6,1.7,3.09,1.86,3.62,0c0.54-1.91,0.71-4.26-1.19-5.49c-1.54-0.99-3.47-0.67-4.47,0.88c1.14,0.15,2.28,0.3,3.43,0.45
			c-0.53-1.57-0.72-3.08-0.61-4.73c0.12-1.8-2.05-2.24-3.2-1.33c-0.29,0.23-0.63,0.33-0.98,0.42c0.77,0.77,1.54,1.54,2.31,2.31
			c0.37-1.9,0.35-3.73-0.13-5.6c-0.41-1.6-2.6-1.79-3.43-0.45c-0.3,0.48-0.67,0.84-1.21,1.03c0.77,0.77,1.54,1.54,2.31,2.31
			c0.95-2.25,1.1-4.61,0.68-7c-0.28-1.6-2.71-1.81-3.43-0.45c-0.6,1.14-1.2,2.28-1.81,3.42c1.16,0.32,2.33,0.63,3.49,0.95
			c0.17-2.33,0.33-4.66,0.5-6.99c0.11-1.54-2.19-2.58-3.2-1.33c-0.9,1.12-1.81,2.24-2.71,3.36c1.07,0.44,2.13,0.88,3.2,1.33
			c0.42-3.16,0.84-6.32,1.27-9.47c0.25-1.84-2.73-2.56-3.49-0.95c-0.92,1.93-1.84,3.85-2.75,5.78c1.14,0.48,2.28,0.96,3.43,1.44
			c0.73-4.11,1.45-8.23,2.18-12.34C95.72,59.62,92.11,58.6,91.69,60.98L91.69,60.98z"/>
	</g>
</g>
<g>
	<g>
		<path class="st0" d="M79.11,114.35c-2.99,2.47-6.06,5.11-7.64,8.74c-0.34,0.78-0.35,1.63,0.29,2.27c0.55,0.55,1.6,0.77,2.27,0.29
			c3.49-2.51,6.98-5.01,10.47-7.52c-0.76-0.98-1.51-1.96-2.27-2.94c-2.9,3.37-5.93,6.61-9.1,9.72c-1.5,1.47,0.45,4.11,2.27,2.94
			c3.75-2.4,7.33-5.06,10.71-7.95c1.61-1.37-0.51-4.15-2.27-2.94c-4.25,2.9-7.93,6.42-11.07,10.49c-1.14,1.48,1.09,3.61,2.57,2.57
			c4.1-2.91,8.21-5.82,12.31-8.73c-0.76-0.98-1.51-1.96-2.27-2.94c-3.66,3.56-7.33,7.13-10.99,10.69c-1.06,1.03-0.35,3.43,1.33,3.2
			c2.64-0.35,4.43-2.04,6.4-3.7c2.03-1.72,4.06-3.43,6.09-5.15c-0.88-0.88-1.77-1.77-2.65-2.65c-3.06,3.36-6.13,6.72-9.19,10.08
			c-1.4,1.54,0.38,4.07,2.27,2.94c3.63-2.15,6.98-4.76,9.94-7.76c-0.98-0.76-1.96-1.51-2.94-2.27c-1.68,2.67-3.58,5.16-5.7,7.49
			c-1.38,1.51,0.41,4.15,2.27,2.94c2.46-1.59,4.75-3.45,6.79-5.55c-0.88-0.88-1.77-1.77-2.65-2.65c-1.35,1.71-2.69,3.42-4.04,5.13
			c-0.63,0.8-0.78,1.88,0,2.65c0.65,0.65,2.02,0.8,2.65,0c1.35-1.71,2.69-3.42,4.04-5.13c0.63-0.8,0.78-1.88,0-2.65
			c-0.71-0.71-1.94-0.73-2.65,0c-1.83,1.88-3.83,3.55-6.03,4.97c0.76,0.98,1.51,1.96,2.27,2.94c2.33-2.56,4.44-5.32,6.29-8.25
			c1.14-1.81-1.46-3.78-2.94-2.27c-2.75,2.79-5.81,5.18-9.18,7.18c0.76,0.98,1.51,1.96,2.27,2.94c3.06-3.36,6.13-6.72,9.19-10.08
			c1.64-1.8-0.82-4.2-2.65-2.65c-1.78,1.5-3.55,3-5.33,4.5c-0.82,0.69-1.63,1.39-2.46,2.07c-0.56,0.46-1.31,1.08-2.05,1.18
			c0.44,1.07,0.88,2.13,1.33,3.2c3.66-3.56,7.33-7.13,10.99-10.69c1.49-1.45-0.5-4.2-2.27-2.94c-4.1,2.91-8.21,5.82-12.31,8.73
			c0.86,0.86,1.71,1.71,2.57,2.57c2.72-3.53,6.04-6.63,9.72-9.14c-0.76-0.98-1.51-1.96-2.27-2.94c-3.15,2.69-6.47,5.14-9.95,7.37
			c0.76,0.98,1.51,1.96,2.27,2.94c3.17-3.11,6.21-6.35,9.1-9.72c0.61-0.71,0.76-1.7,0.15-2.46c-0.54-0.67-1.65-1.04-2.42-0.48
			c-3.49,2.51-6.98,5.01-10.47,7.52c0.86,0.86,1.71,1.71,2.57,2.57c1.46-3.36,4.29-5.7,7.05-7.98c0.78-0.64,0.67-1.98,0-2.65
			C80.99,113.57,79.9,113.7,79.11,114.35L79.11,114.35z"/>
	</g>
</g>
<g>
	<g>
		<path class="st1" d="M73.04,102.06c-5.55-1.03-10.01,4.83-11.27,9.62c-1.3,4.91,0.51,10.02,4.96,12.62
			c4.12,2.41,9.26,2.02,12.82-1.22c3.39-3.08,4.74-8.1,3.83-12.53c-0.59-2.85-2.19-5.57-4.62-7.21c-2.53-1.7-5.91-1.92-8.58-0.43
			c-2.11,1.18-0.22,4.42,1.89,3.24c3.47-1.94,6.68,1.6,7.52,4.69c0.8,2.92,0.13,6.31-1.82,8.66c-1.99,2.4-5.03,3.21-7.96,2.13
			c-3.08-1.14-4.91-4-4.72-7.26c0.12-2.03,1-4,2.19-5.63c0.98-1.36,2.87-3.43,4.76-3.08c0.99,0.18,2.02-0.27,2.31-1.31
			C74.6,103.46,74.05,102.25,73.04,102.06L73.04,102.06z"/>
	</g>
</g>
<g>
	<g>
		<path class="st1" d="M83.86,115.22c2.3-21.48,0.16-43.07,0.88-64.6c0.2-6.07,0.63-12.15,1.46-18.17c0.14-1.01-0.25-2-1.31-2.31
			c-0.87-0.25-2.17,0.31-2.31,1.31c-3.01,21.67-1.05,43.51-1.41,65.28c-0.1,6.17-0.41,12.34-1.07,18.48
			c-0.11,1.01,0.94,1.88,1.88,1.88C83.09,117.1,83.75,116.23,83.86,115.22L83.86,115.22z"/>
	</g>
</g>
<g>
	<g>
		<path class="st1" d="M82.43,32.14c0.43,8.76,1.73,17.48,3.91,25.97c1.09,4.24,2.4,8.41,3.92,12.52c1.51,4.09,3.15,8.13,4.35,12.32
			c1.33,4.63,2.07,9.47,1.08,14.24c1.23,0.17,2.46,0.33,3.68,0.5c-0.01-6.16-3.6-11.25-6.77-16.24c-3.41-5.36-5.98-11.12-7.62-17.26
			c-0.62-2.33-4.24-1.34-3.62,1c1.61,6.01,4.08,11.8,7.34,17.1c2.92,4.74,6.91,9.56,6.92,15.4c0,2.06,3.24,2.62,3.68,0.5
			c1.84-8.82-1.21-17.35-4.29-25.5c-3.12-8.28-5.66-16.69-7.18-25.42c-0.87-5-1.41-10.05-1.66-15.11
			C86.06,29.73,82.31,29.72,82.43,32.14L82.43,32.14z"/>
	</g>
</g>
<g>
	<g>
		<path class="st1" d="M83.18,50.68c-0.73,4.11-1.45,8.23-2.18,12.34c-0.16,0.93,0.17,1.83,1.09,2.21c0.8,0.34,1.94,0.08,2.34-0.77
			c0.92-1.93,1.84-3.85,2.75-5.78c-1.16-0.32-2.33-0.63-3.49-0.95c-0.42,3.16-0.84,6.32-1.27,9.47c-0.21,1.57,2.22,2.53,3.2,1.33
			c0.9-1.12,1.81-2.24,2.71-3.36c-1.07-0.44-2.13-0.88-3.2-1.33c-0.17,2.33-0.33,4.66-0.5,6.99c-0.13,1.86,2.65,2.55,3.49,0.95
			c0.6-1.14,1.2-2.28,1.81-3.42c-1.14-0.15-2.28-0.3-3.43-0.45c0.3,1.73-0.01,3.4-0.68,5c-0.54,1.3,1.06,2.76,2.31,2.31
			c1.49-0.54,2.61-1.4,3.45-2.76c-1.14-0.15-2.28-0.3-3.43-0.45c0.31,1.2,0.38,2.39,0.13,3.61c-0.27,1.39,0.85,2.69,2.31,2.31
			c1.03-0.27,1.81-0.73,2.64-1.39c-1.07-0.44-2.13-0.88-3.2-1.33c-0.13,1.94,0.12,3.88,0.74,5.73c0.52,1.55,2.53,1.83,3.43,0.45
			c-0.85,0.16-1.11,0.29-0.77,0.39c-0.15-0.22-0.2-0.22-0.16,0c-0.13,0.39-0.14,0.91-0.26,1.33c1.21,0,2.41,0,3.62,0
			c-2.55-7.26-5.2-14.48-7.96-21.65c-0.36-0.94-1.26-1.6-2.31-1.31c-0.9,0.25-1.68,1.35-1.31,2.31c2.76,7.18,5.41,14.4,7.96,21.65
			c0.6,1.7,3.09,1.86,3.62,0c0.54-1.91,0.71-4.26-1.19-5.49c-1.54-0.99-3.47-0.67-4.47,0.88c1.14,0.15,2.28,0.3,3.43,0.45
			c-0.53-1.57-0.72-3.08-0.61-4.73c0.12-1.8-2.05-2.24-3.2-1.33c-0.29,0.23-0.63,0.33-0.98,0.42c0.77,0.77,1.54,1.54,2.31,2.31
			c0.37-1.9,0.35-3.73-0.13-5.6c-0.41-1.6-2.6-1.79-3.43-0.45c-0.3,0.48-0.67,0.84-1.21,1.03c0.77,0.77,1.54,1.54,2.31,2.31
			c0.95-2.25,1.1-4.61,0.68-7c-0.28-1.6-2.71-1.81-3.43-0.45c-0.6,1.14-1.2,2.28-1.81,3.42c1.16,0.32,2.33,0.63,3.49,0.95
			c0.17-2.33,0.33-4.66,0.5-6.99c0.11-1.54-2.19-2.58-3.2-1.33c-0.9,1.12-1.81,2.24-2.71,3.36c1.07,0.44,2.13,0.88,3.2,1.33
			c0.42-3.16,0.84-6.32,1.27-9.47c0.25-1.84-2.73-2.56-3.49-0.95c-0.92,1.93-1.84,3.85-2.75,5.78c1.14,0.48,2.28,0.96,3.43,1.44
			c0.73-4.11,1.45-8.23,2.18-12.34C87.22,49.32,83.6,48.3,83.18,50.68L83.18,50.68z"/>
	</g>
</g>
<g>
	<g>
		<path class="st1" d="M70.61,104.05c-2.99,2.47-6.06,5.11-7.64,8.74c-0.34,0.78-0.35,1.63,0.29,2.27c0.55,0.55,1.6,0.77,2.27,0.29
			c3.49-2.51,6.98-5.01,10.47-7.52c-0.76-0.98-1.51-1.96-2.27-2.94c-2.9,3.37-5.93,6.61-9.1,9.72c-1.5,1.47,0.45,4.11,2.27,2.94
			c3.75-2.4,7.33-5.06,10.71-7.95c1.61-1.37-0.51-4.15-2.27-2.94c-4.25,2.9-7.93,6.42-11.07,10.49c-1.14,1.48,1.09,3.61,2.57,2.57
			c4.1-2.91,8.21-5.82,12.31-8.73c-0.76-0.98-1.51-1.96-2.27-2.94c-3.66,3.56-7.33,7.13-10.99,10.69c-1.06,1.03-0.35,3.43,1.33,3.2
			c2.64-0.35,4.43-2.04,6.4-3.7c2.03-1.72,4.06-3.43,6.09-5.15c-0.88-0.88-1.77-1.77-2.65-2.65c-3.06,3.36-6.13,6.72-9.19,10.08
			c-1.4,1.54,0.38,4.07,2.27,2.94c3.63-2.15,6.98-4.76,9.94-7.76c-0.98-0.76-1.96-1.51-2.94-2.27c-1.68,2.67-3.58,5.16-5.7,7.49
			c-1.38,1.51,0.41,4.15,2.27,2.94c2.46-1.59,4.75-3.45,6.79-5.55c-0.88-0.88-1.77-1.77-2.65-2.65c-1.35,1.71-2.69,3.42-4.04,5.13
			c-0.63,0.8-0.78,1.88,0,2.65c0.65,0.65,2.02,0.8,2.65,0c1.35-1.71,2.69-3.42,4.04-5.13c0.63-0.8,0.78-1.88,0-2.65
			c-0.71-0.71-1.94-0.73-2.65,0c-1.83,1.88-3.83,3.55-6.03,4.97c0.76,0.98,1.51,1.96,2.27,2.94c2.33-2.56,4.44-5.32,6.29-8.25
			c1.14-1.81-1.46-3.78-2.94-2.27c-2.75,2.79-5.81,5.18-9.18,7.18c0.76,0.98,1.51,1.96,2.27,2.94c3.06-3.36,6.13-6.72,9.19-10.08
			c1.64-1.8-0.82-4.2-2.65-2.65c-1.78,1.5-3.55,3-5.33,4.5c-0.82,0.69-1.63,1.39-2.46,2.07c-0.56,0.46-1.31,1.08-2.05,1.18
			c0.44,1.07,0.88,2.13,1.33,3.2c3.66-3.56,7.33-7.13,10.99-10.69c1.49-1.45-0.5-4.2-2.27-2.94c-4.1,2.91-8.21,5.82-12.31,8.73
			c0.86,0.86,1.71,1.71,2.57,2.57c2.72-3.53,6.04-6.63,9.72-9.14c-0.76-0.98-1.51-1.96-2.27-2.94c-3.15,2.69-6.47,5.14-9.95,7.37
			c0.76,0.98,1.51,1.96,2.27,2.94c3.17-3.11,6.21-6.35,9.1-9.72c0.61-0.71,0.76-1.7,0.15-2.46c-0.54-0.67-1.65-1.04-2.42-0.48
			c-3.49,2.51-6.98,5.01-10.47,7.52c0.86,0.86,1.71,1.71,2.57,2.57c1.46-3.36,4.29-5.7,7.05-7.98c0.78-0.64,0.67-1.98,0-2.65
			C72.49,103.27,71.39,103.4,70.61,104.05L70.61,104.05z"/>
	</g>
</g>
</svg>
