<?xml version="1.0" encoding="utf-8"?>
<!-- Generator: Adobe Illustrator 26.0.1, SVG Export Plug-In . SVG Version: 6.00 Build 0)  -->
<svg version="1.1" id="Layer_1" xmlns="http://www.w3.org/2000/svg" xmlns:xlink="http://www.w3.org/1999/xlink" x="0px" y="0px"
	 viewBox="0 0 91 79" style="enable-background:new 0 0 91 79;" xml:space="preserve">
<style type="text/css">
	.st0{fill:#F8EC7D;}
	.st1{fill:#E48E66;}
	.st2{fill:#EEC251;}
	.st3{fill:#D7AD41;}
</style>
<desc>Created with Sketch.</desc>
<g id="Personal-1-mixed">
	<g id="services" transform="translate(-824.000000, -1706.000000)">
		<g transform="translate(350.000000, 1552.000000)">
			<g id="_x31_-copy-3" transform="translate(356.000000, 109.000000)">
				<g id="web-programming" transform="translate(118.000000, 45.000000)">
					<path id="Path" class="st0" d="M126.53-154.36v12.56H36.39v-12.56c0-4.78,3.94-8.65,8.79-8.65h72.55
						C122.59-163.01,126.53-159.14,126.53-154.36z"/>
					<g id="Group" transform="translate(0.000000, 7.953604)">
						<path id="Path_00000062162722862226534880000009933095055202182571_" class="st1" d="M76.12-162.9
							c1.84,0.01,3.33,1.47,3.32,3.27c-0.01,1.8-1.5,3.25-3.34,3.24c-1.84-0.01-3.33-1.47-3.32-3.27
							C72.78-161.45,74.28-162.91,76.12-162.9z"/>
						<path id="Path_00000047047796126557563130000011004830327714456704_" class="st2" d="M126.53-149.24v47.69
							c0,4.75-3.94,8.59-8.79,8.59H45.18c-4.86,0-8.79-3.85-8.79-8.59v-47.69H126.53z"/>
						<path id="Path_00000005967155314700978690000003078374352660125592_" class="st1" d="M61.16-162.95
							c1.84,0.01,3.33,1.47,3.32,3.27c-0.01,1.8-1.5,3.25-3.34,3.24c-1.84-0.01-3.33-1.47-3.32-3.27c0-0.86,0.36-1.69,0.98-2.3
							C59.42-162.61,60.27-162.95,61.16-162.95z"/>
						<path id="Path_00000006668013082842216700000018269469257652025487_" class="st1" d="M46.19-162.99
							c1.84,0.01,3.33,1.47,3.32,3.27c-0.01,1.8-1.5,3.25-3.34,3.25c-1.84-0.01-3.33-1.47-3.32-3.27c0-0.86,0.36-1.69,0.98-2.3
							C44.46-162.66,45.31-163,46.19-162.99z"/>
					</g>
					<path id="Path_00000043458393973221650980000010374306834491177359_" class="st3" d="M71.94-106.01
						c-0.37,0-0.73-0.13-1.01-0.36l-10.13-8.41c-0.35-0.29-0.55-0.72-0.55-1.16s0.2-0.87,0.55-1.16l10.13-8.41
						c0.66-0.55,1.65-0.47,2.21,0.17c0.56,0.64,0.48,1.61-0.18,2.15l-8.73,7.25l8.73,7.25c0.5,0.42,0.68,1.09,0.45,1.69
						C73.18-106.41,72.6-106.01,71.94-106.01L71.94-106.01z"/>
					<path id="Path_00000142144300809445152300000000088737770943008915_" class="st3" d="M90.98-106.01c-0.66,0-1.24-0.4-1.47-1
						c-0.23-0.6-0.05-1.28,0.45-1.69l8.73-7.25l-8.73-7.25c-0.66-0.55-0.74-1.51-0.18-2.15c0.56-0.64,1.55-0.72,2.21-0.17
						l10.13,8.41c0.35,0.29,0.55,0.72,0.55,1.16s-0.2,0.87-0.55,1.16l-10.13,8.41C91.71-106.14,91.35-106.01,90.98-106.01
						L90.98-106.01z"/>
					<path id="Path_00000063604200180817979100000006322621841899831195_" class="st3" d="M77.7-99.38c-0.46,0-0.9-0.2-1.2-0.56
						c-0.29-0.35-0.41-0.81-0.31-1.26l6.2-28.81c0.18-0.81,0.99-1.33,1.82-1.16c0.83,0.17,1.36,0.97,1.19,1.78l-6.2,28.81
						C79.05-99.88,78.42-99.38,77.7-99.38L77.7-99.38z"/>
				</g>
			</g>
		</g>
	</g>
</g>
<g>
	<g>
		
			<ellipse transform="matrix(0.7071 -0.7071 0.7071 0.7071 -15.5088 43.7032)" class="st1" cx="45" cy="40.57" rx="38.57" ry="38.57"/>
	</g>
</g>
<g>
	<g>
		<g>
			<path class="st2" d="M43.04,64.62c-3.07,0-5.56-2.5-5.56-5.56v-0.77h2.22v0.77c0,1.84,1.5,3.34,3.34,3.34
				c1.84,0,3.34-1.5,3.34-3.34v-4.42h-3.45c-6.9,0-12.51-5.61-12.51-12.51c0-2.99,1.07-5.88,3.02-8.15
				c1.94-2.27,4.64-3.77,7.59-4.22l5.36-0.82v-3.31c0-5.02,4.08-9.1,9.1-9.1c2.26,0,4.1,1.84,4.1,4.1v0.72
				c0,2.17-0.78,4.28-2.19,5.92c-1.41,1.65-3.37,2.74-5.52,3.07l-3.26,0.5v7.91c3.88,0.54,6.88,3.88,6.88,7.9
				c0,4.03-3,7.37-6.88,7.9v4.49C48.6,62.12,46.11,64.62,43.04,64.62z M46.38,31.18l-5.02,0.77c-5.06,0.78-8.73,5.06-8.73,10.17
				c0,5.68,4.62,10.29,10.29,10.29h3.45V40.9h-0.04c-2.27,0-4.11,1.84-4.11,4.11h-2.22c0-3.49,2.84-6.33,6.33-6.33h0.04V31.18z
				 M48.6,41v11.31c2.65-0.51,4.66-2.85,4.66-5.65C53.27,43.86,51.26,41.52,48.6,41z M55.48,18.75c-3.79,0-6.88,3.09-6.88,6.88v2.97
				l2.92-0.45c3.38-0.52,5.83-3.38,5.83-6.8v-0.72C57.36,19.59,56.52,18.75,55.48,18.75z"/>
		</g>
	</g>
</g>
</svg>
