<?xml version="1.0" encoding="utf-8"?>
<!-- Generator: Adobe Illustrator 26.0.1, SVG Export Plug-In . SVG Version: 6.00 Build 0)  -->
<svg version="1.1" id="Layer_1" xmlns="http://www.w3.org/2000/svg" xmlns:xlink="http://www.w3.org/1999/xlink" x="0px" y="0px"
	 viewBox="0 0 96 80" style="enable-background:new 0 0 96 80;" xml:space="preserve">
<style type="text/css">
	.st0{fill:#C16F4C;}
	.st1{fill:#231F20;}
	.st2{fill:#E3482A;}
	.st3{fill:#CE3331;}
	.st4{fill:#E58A30;}
	.st5{fill:#E57930;}
	.st6{fill:#F1AF41;}
	.st7{fill:#F1A13B;}
	.st8{fill:#E58630;}
	.st9{fill:#E33836;}
	.st10{fill:#E32C29;}
</style>
<desc>Created with Sketch.</desc>
<g>
	<g>
		<g>
			<path class="st0" d="M30.55,79.99c-0.3,0-0.61-0.12-0.84-0.35c-0.46-0.46-0.46-1.21,0-1.68l7.61-7.61
				c0.82-0.82,1.27-1.91,1.27-3.07c0-1.16-0.45-2.25-1.27-3.07c-0.82-0.82-1.91-1.27-3.07-1.27c-1.16,0-2.25,0.45-3.07,1.27
				l-7.13,7.13c-1.27,1.27-2.95,1.96-4.74,1.96c-1.79,0-3.48-0.7-4.74-1.96l-0.1-0.1c-1.27-1.27-1.96-2.95-1.96-4.74
				c0-1.79,0.7-3.48,1.96-4.74l7.18-7.18c0.46-0.46,1.21-0.46,1.68,0c0.46,0.46,0.46,1.21,0,1.68l-7.18,7.18
				c-0.82,0.82-1.27,1.91-1.27,3.07c0,1.16,0.45,2.25,1.27,3.07l0.1,0.1c0.82,0.82,1.91,1.27,3.07,1.27c1.16,0,2.25-0.45,3.07-1.27
				l7.13-7.13c2.61-2.61,6.87-2.62,9.48,0c2.61,2.61,2.61,6.87,0,9.48l-7.61,7.61C31.16,79.87,30.85,79.99,30.55,79.99z"/>
		</g>
	</g>
</g>
<g>
	<g>
		<g>
			<path class="st1" d="M49.82,38.62c-2.7,0-5.4-1.03-7.45-3.08c-4.11-4.11-4.11-10.79,0-14.9c4.11-4.11,10.79-4.11,14.9,0
				c4.11,4.11,4.11,10.79,0,14.9C55.21,37.6,52.52,38.62,49.82,38.62z M49.82,19.93c-2.09,0-4.18,0.8-5.77,2.39
				c-3.18,3.18-3.18,8.36,0,11.55c3.18,3.18,8.36,3.18,11.55,0c3.18-3.18,3.18-8.36,0-11.55C54,20.73,51.91,19.93,49.82,19.93z"/>
		</g>
	</g>
</g>
<g>
	<g>
		<g>
			<path class="st2" d="M83.64,19.35l0.78-12.77c0.04-0.65-0.46-1.22-1.11-1.26c-0.1-0.01-0.2,0.01-0.3,0.02
				c-0.1-0.02-0.2-0.03-0.3-0.02L72.18,6.26c-0.03,0-0.06,0.01-0.1,0.02c-0.63-0.01-1.17,0.47-1.21,1.11l-0.6,9.76
				c-0.61-0.29-1.28-0.48-1.95-0.52c-1.01-0.07-2,0.2-2.78,0.74c-0.85,0.59-1.36,1.48-1.42,2.43c-0.11,1.88,1.58,3.52,3.78,3.66
				c0.1,0.01,0.2,0.01,0.29,0.01c0.9,0,1.83-0.25,2.58-0.69c0.89-0.53,1.47-1.3,1.63-2.15c0.02-0.07,0.03-0.15,0.04-0.23l0.72-11.84
				l8.79-0.78l-0.51,8.41c-0.61-0.29-1.28-0.48-1.95-0.52c-1.02-0.06-2,0.2-2.78,0.74c-0.85,0.59-1.36,1.48-1.42,2.43
				c-0.11,1.88,1.58,3.52,3.78,3.66c0.1,0.01,0.2,0.01,0.29,0.01c0.9,0,1.83-0.25,2.58-0.69c0.89-0.53,1.47-1.3,1.63-2.15
				c0.02-0.07,0.03-0.15,0.04-0.23L83.64,19.35L83.64,19.35L83.64,19.35z"/>
		</g>
	</g>
	<g>
		<g>
			<path class="st3" d="M64.68,5.17c1.03,3.02,2.93,3.39,3.15,3.42l0.35-2.34c0,0,0.02,0,0.07,0.01c-0.01,0-0.77-0.24-1.33-1.86
				c-1.07-3.12-3.84-3.39-3.96-3.4c-0.65-0.06-1.23,0.43-1.29,1.08c-0.01,0.11,0,0.22,0.02,0.33v10.57
				c-0.69-0.31-1.47-0.48-2.22-0.48c-2.33,0-4.22,1.61-4.22,3.59s1.89,3.59,4.22,3.59c2.11,0,4.37-1.31,4.57-3.3
				c0.01-0.07,0.02-0.13,0.02-0.2V4.1C64.3,4.36,64.52,4.7,64.68,5.17z"/>
		</g>
	</g>
</g>
<g>
	<g>
		<path class="st4" d="M22.37,49.24c-0.27-0.44-0.23-1,0.1-1.4l0.15-0.17c-0.06,0.04-0.11,0.09-0.16,0.15l-1.09,1.27
			c-1.78,2.08-1.66,5.23,0.28,7.17h0l3.49-3.49C24.11,51.72,23.18,50.54,22.37,49.24z"/>
	</g>
</g>
<g>
	<g>
		<path class="st5" d="M28.82,56.54l1.06-0.91c-0.18,0.1-0.38,0.16-0.59,0.16c-0.22,0-0.44-0.06-0.63-0.18
			c-1.29-0.8-2.46-1.75-3.53-2.83l-3.49,3.49c1.02,1.02,2.38,1.54,3.74,1.54C26.61,57.8,27.84,57.38,28.82,56.54z"/>
	</g>
</g>
<g>
	<g>
		<path class="st6" d="M23.45,47.41c0.38,0.03,0.72,0.24,0.92,0.56c0.72,1.15,1.54,2.2,2.45,3.13l15.55-15.55
			c-2.02-2.02-3.08-4.68-3.1-7.37l-16.66,19.5C22.85,47.49,23.15,47.39,23.45,47.41z"/>
	</g>
</g>
<g>
	<g>
		<path class="st6" d="M22.37,49.24c0.81,1.3,1.74,2.48,2.77,3.53l1.68-1.68c-0.91-0.93-1.73-1.97-2.45-3.13
			c-0.2-0.32-0.54-0.53-0.92-0.56c-0.3-0.02-0.6,0.07-0.83,0.26l-0.15,0.17C22.14,48.24,22.1,48.8,22.37,49.24z"/>
	</g>
</g>
<g>
	<g>
		<path class="st7" d="M42.37,35.54L26.82,51.1l-1.68,1.68c1.06,1.08,2.24,2.03,3.53,2.83c0.19,0.12,0.41,0.18,0.63,0.18
			c0.2,0,0.41-0.05,0.59-0.16c0.06-0.04,0.13-0.08,0.18-0.13l19.65-16.89C47.03,38.58,44.37,37.54,42.37,35.54z"/>
	</g>
</g>
<g>
	<g>
		<path class="st4" d="M40.3,27.55c0.33-0.01,0.65,0.11,0.88,0.35l0.13,0.13c0.2,0.2,0.32,0.46,0.34,0.74
			c0.16,1.92,1,3.72,2.37,5.08c0,0,0.01,0.01,0.01,0.01l1.66-1.66c-0.11-0.1-0.22-0.21-0.33-0.32c-2.33-2.33-3.94-5.25-4.66-8.46
			c-0.07-0.3-0.01-0.62,0.15-0.88c-1.08,1.74-1.6,3.69-1.58,5.62l0.17-0.2C39.66,27.72,39.97,27.57,40.3,27.55z"/>
	</g>
</g>
<g>
	<g>
		<path class="st4" d="M44.05,33.87c0,0-0.01-0.01-0.01-0.01c-1.36-1.36-2.21-3.17-2.37-5.08c-0.02-0.28-0.15-0.54-0.34-0.74
			l-0.13-0.13c-0.23-0.23-0.55-0.36-0.88-0.35c-0.33,0.01-0.64,0.16-0.85,0.41l-0.17,0.2c0.02,2.69,1.07,5.35,3.1,7.37L44.05,33.87z
			"/>
	</g>
</g>
<g>
	<g>
		<path class="st8" d="M55.36,36.81c-0.06,0-0.11,0-0.17-0.01c-3.6-0.51-6.86-2.1-9.49-4.59l-1.66,1.66l-1.68,1.68
			c2,2,4.66,3.03,7.35,3.06c0.04,0,0.08,0,0.12,0c2.18,0,4.37-0.67,6.22-2.03C55.86,36.73,55.61,36.81,55.36,36.81z"/>
	</g>
</g>
<g>
	<g>
		<path class="st9" d="M42.06,22.01c0.47,0.08,0.85,0.44,0.96,0.91c0.62,2.76,2.01,5.29,4.02,7.3c0.11,0.11,0.22,0.21,0.33,0.32
			l9.89-9.89c-4.11-4.11-10.79-4.11-14.9,0c-0.57,0.57-1.08,1.21-1.51,1.91C41.11,22.15,41.59,21.93,42.06,22.01z"/>
	</g>
</g>
<g>
	<g>
		<path class="st9" d="M40.71,23.44c0.72,3.2,2.33,6.13,4.66,8.46c0.11,0.11,0.22,0.21,0.33,0.32l1.68-1.68
			c-0.11-0.1-0.22-0.21-0.33-0.32c-2.01-2.01-3.4-4.54-4.02-7.3c-0.11-0.47-0.48-0.83-0.96-0.91c-0.47-0.08-0.95,0.14-1.2,0.54
			C40.7,22.82,40.64,23.14,40.71,23.44z"/>
	</g>
</g>
<g>
	<g>
		<path class="st10" d="M57.27,20.65L57.27,20.65l-9.89,9.89l-1.68,1.68c2.62,2.49,5.89,4.08,9.49,4.59
			c0.06,0.01,0.11,0.01,0.17,0.01c0.25,0,0.5-0.08,0.7-0.23c0.43-0.31,0.83-0.66,1.21-1.04C61.38,31.44,61.38,24.75,57.27,20.65z"/>
	</g>
</g>
</svg>
