<?xml version="1.0" encoding="utf-8"?>
<!-- Generator: Adobe Illustrator 26.0.1, SVG Export Plug-In . SVG Version: 6.00 Build 0)  -->
<svg version="1.1" id="Layer_1" xmlns="http://www.w3.org/2000/svg" xmlns:xlink="http://www.w3.org/1999/xlink" x="0px" y="0px"
	 viewBox="0 0 80 80" style="enable-background:new 0 0 80 80;" xml:space="preserve">
<style type="text/css">
	.st0{fill:#45505A;}
	.st1{fill:#68B7BB;}
	.st2{fill:#FFFBE2;}
	.st3{fill:#E95555;}
</style>
<desc>Created with Sketch.</desc>
<g>
	<g>
		<path class="st0" d="M75.57,2H4.43c-1.05,0-1.9,0.85-1.9,1.9v33.57c0,1.05,0.85,1.9,1.9,1.9h13.66c1.05,0,1.9-0.85,1.9-1.9l0,0
			h3.12c0,0,0-0.01,0-0.01v-6.94c0-1.05,0.85-1.9,1.9-1.9h29.98c1.05,0,1.9,0.85,1.9,1.9v6.94c0,0,0,0.01,0,0.01h2.91l0,0
			c0,1.05,0.85,1.9,1.9,1.9h13.87c1.05,0,1.9-0.85,1.9-1.9V3.9C77.47,2.85,76.62,2,75.57,2z"/>
	</g>
	<g>
		<g>
			<path class="st1" d="M15.72,61.05c2.7,0,4.89-2.19,4.89-4.89s-2.19-4.89-4.89-4.89s-4.89,2.19-4.89,4.89S13.02,61.05,15.72,61.05
				z"/>
		</g>
		<g>
			<path class="st1" d="M18.97,61.88c-0.63-0.18-1.31-0.02-1.79,0.42c-0.4,0.36-0.91,0.56-1.45,0.56c-0.54,0-1.05-0.2-1.45-0.56
				c-0.49-0.44-1.16-0.6-1.79-0.42c-4.17,1.18-6.71,5.29-5.92,9.55c0.6,3.25,3.44,5.61,6.75,5.61h4.84c3.31,0,6.15-2.36,6.75-5.61
				C25.68,67.17,23.13,63.06,18.97,61.88z"/>
		</g>
		<g>
			<circle class="st1" cx="40" cy="56.16" r="4.89"/>
		</g>
		<g>
			<path class="st1" d="M43.25,61.88c-0.63-0.18-1.31-0.02-1.79,0.42c-0.4,0.36-0.91,0.56-1.45,0.56s-1.05-0.2-1.45-0.56
				c-0.49-0.44-1.16-0.6-1.79-0.42c-4.17,1.18-6.71,5.29-5.92,9.55c0.6,3.25,3.44,5.61,6.75,5.61h4.84c3.31,0,6.15-2.36,6.75-5.61
				C49.96,67.17,47.41,63.06,43.25,61.88z"/>
		</g>
		<g>
			<path class="st1" d="M64.28,61.05c2.7,0,4.89-2.19,4.89-4.89s-2.19-4.89-4.89-4.89c-2.7,0-4.89,2.19-4.89,4.89
				S61.58,61.05,64.28,61.05z"/>
		</g>
		<g>
			<path class="st1" d="M67.53,61.88c-0.63-0.18-1.31-0.02-1.79,0.42c-0.4,0.36-0.91,0.56-1.45,0.56c-0.54,0-1.05-0.2-1.45-0.56
				c-0.49-0.44-1.16-0.6-1.79-0.42c-4.17,1.18-6.71,5.29-5.92,9.55c0.6,3.25,3.44,5.61,6.75,5.61h4.84c3.31,0,6.15-2.36,6.75-5.61
				C74.24,67.17,71.69,63.06,67.53,61.88z"/>
		</g>
	</g>
	<g>
		<circle class="st2" cx="40" cy="15.66" r="5.53"/>
	</g>
	<g>
		<path class="st3" d="M54.99,28.63H25.01c-1.05,0-1.9,0.85-1.9,1.9v6.94c0,1.05,0.85,1.9,1.9,1.9h1.15v7.36
			c0,1.05,0.85,1.9,1.9,1.9h23.87c1.05,0,1.9-0.85,1.9-1.9v-7.36h1.15c1.05,0,1.9-0.85,1.9-1.9v-6.94
			C56.89,29.48,56.04,28.63,54.99,28.63z"/>
	</g>
	<g>
		<path class="st2" d="M50.57,28.63c-0.88-3.32-3.42-5.93-6.74-6.87c-0.63-0.18-1.31-0.02-1.79,0.42c-0.56,0.51-1.28,0.78-2.03,0.78
			c-0.75,0-1.48-0.28-2.03-0.78c-0.49-0.44-1.16-0.6-1.79-0.42c-3.31,0.94-5.86,3.55-6.74,6.87H50.57z"/>
	</g>
</g>
</svg>
