<svg xmlns="http://www.w3.org/2000/svg" xmlns:xlink="http://www.w3.org/1999/xlink" viewBox="0 0 476.23 905.34"><defs><style>.cls-1{fill:none;}.cls-2{isolation:isolate;}.cls-3{clip-path:url(#clip-path);}.cls-4{fill:#353353;}.cls-5{fill:#4d4a77;}.cls-6{fill:#291713;}.cls-7{fill:#ffb345;}.cls-8,.cls-9{fill:#eb816d;}.cls-9{mix-blend-mode:multiply;opacity:0.5;}.cls-10{fill:#fffbfd;}.cls-11{fill:#87706f;}.cls-12{clip-path:url(#clip-path-2);}.cls-13{clip-path:url(#clip-path-3);}</style><clipPath id="clip-path" transform="translate(93.91 140.15)"><circle class="cls-1" cx="142.84" cy="139.6" r="131.4"/></clipPath><clipPath id="clip-path-2" transform="translate(93.91 140.15)"><polygon class="cls-1" points="253.66 236.1 191.01 266.74 196.36 347.47 253.66 338.3 253.66 236.1"/></clipPath><clipPath id="clip-path-3" transform="translate(93.91 140.15)"><polygon class="cls-1" points="44.53 256.16 115.2 280.86 76.03 353.92 13.43 353.92 44.53 256.16"/></clipPath></defs><g class="cls-2"><g id="Layer_1" data-name="Layer 1"><g class="cls-3"><rect class="cls-4" width="476.23" height="488.67"/><rect class="cls-5" x="198.68" y="569.01" width="20.87" height="320.25"/><path class="cls-6" d="M127,752.76a12.59,12.59,0,0,1-12.74,12.43H78.35a12.59,12.59,0,0,1-12.74-12.43h0a12.58,12.58,0,0,1,12.74-12.43h35.94A12.58,12.58,0,0,1,127,752.76Z" transform="translate(93.91 140.15)"/><rect class="cls-5" x="246.46" y="569.01" width="20.86" height="320.25"/><rect class="cls-5" x="198.68" y="569.01" width="20.87" height="165.97"/><rect class="cls-5" x="246.46" y="569.01" width="20.86" height="165.97"/><path class="cls-6" d="M151.16,752.76a12.59,12.59,0,0,0,12.73,12.43h36a12.59,12.59,0,0,0,12.73-12.43h0a12.58,12.58,0,0,0-12.73-12.43h-36a12.58,12.58,0,0,0-12.73,12.43Z" transform="translate(93.91 140.15)"/><path class="cls-5" d="M101,389.76c0,.44,0,.87,0,1.31v56.86c0,18.33,15.29,33.17,34.15,33.17h8.13c18.86,0,34.15-14.84,34.15-33.17V391.07c0-.44,0-.87,0-1.31Z" transform="translate(93.91 140.15)"/><path class="cls-7" d="M178.77,438.36,191,275.89c0-44.34-20.33-80.28-45.41-80.28H134.79c-25.09,0-45.41,35.94-45.41,80.28l11.77,162.47Z" transform="translate(93.91 140.15)"/><path class="cls-8" d="M163.36,211.22c0,7.13-9.39,12.91-21,12.91h0c-11.58,0-21-5.78-21-12.91v-21c0-7.13,9.39-12.91,21-12.91h0c11.59,0,21,5.78,21,12.91Z" transform="translate(93.91 140.15)"/><path class="cls-9" d="M142.38,177.33c-11.58,0-21,5.78-21,12.91v11a133.08,133.08,0,0,0,17,1.09h19.67c1.77,0,3.5-.09,5.24-.16V190.24C163.36,183.11,154,177.33,142.38,177.33Z" transform="translate(93.91 140.15)"/><path class="cls-8" d="M37.74,310q-3.41,16.72-6.12,36.29C23.17,407.64,23.07,467.44,23.07,470a13,13,0,0,0,13,13h0a13,13,0,0,0,13-13c0-49.56,5-112.08,15.36-160Z" transform="translate(93.91 140.15)"/><path class="cls-7" d="M62.1,321.54A346.9,346.9,0,0,1,73,278c8.21-24.77,18.62-41,31.3-41.74a13,13,0,1,0-1.48-26c-32.12,1.83-54.22,38.31-67.28,111.28Z" transform="translate(93.91 140.15)"/><path class="cls-7" d="M23.07,277.8" transform="translate(93.91 140.15)"/><path class="cls-8" d="M243.74,310q3.4,16.72,6.11,36.29c8.46,61.37,8.56,121.17,8.56,123.68a13,13,0,0,1-13,13h0a13,13,0,0,1-13-13c0-49.56-5-112.08-15.36-160Z" transform="translate(93.91 140.15)"/><path class="cls-7" d="M219.37,321.54c-9.08-47.77-23-84.21-42.17-85.31a13,13,0,1,1,1.48-26c32.12,1.83,54.21,38.31,67.28,111.28Z" transform="translate(93.91 140.15)"/><path class="cls-6" d="M136.61,117.39,135,115.9c.19-.21,4.81-5.15,9.69-4.53,2.43.31,4.45,1.91,6,4.75l-1.93,1c-1.17-2.18-2.63-3.39-4.32-3.61C141.28,113.16,137.72,116.19,136.61,117.39Z" transform="translate(93.91 140.15)"/><path class="cls-8" d="M194.65,116.73c0,28.63-20.62,79.24-46.06,79.24h-11c-25.44,0-46.07-50.61-46.07-79.24V111.8C91.55,83.18,112.18,60,137.62,60h11c25.44,0,46.06,23.2,46.06,51.82Z" transform="translate(93.91 140.15)"/><path class="cls-8" d="M94.84,100.74a14.24,14.24,0,0,0,0,28.15Z" transform="translate(93.91 140.15)"/><path class="cls-8" d="M191.36,123.4a14.24,14.24,0,0,0,0-28.14Z" transform="translate(93.91 140.15)"/><path class="cls-6" d="M120.8,109.7a5.85,5.85,0,0,1-5.85,5.85h0a5.85,5.85,0,0,1-5.85-5.85h0a5.85,5.85,0,0,1,5.85-5.85h0a5.85,5.85,0,0,1,5.85,5.85Z" transform="translate(93.91 140.15)"/><path class="cls-6" d="M179.3,109.7a5.85,5.85,0,0,1-5.85,5.85h0a5.85,5.85,0,0,1-5.85-5.85h0a5.85,5.85,0,0,1,5.85-5.85h0a5.85,5.85,0,0,1,5.85,5.85Z" transform="translate(93.91 140.15)"/><path class="cls-10" d="M126.27,137.12c1.27,6.63,8.14,11.7,16.47,11.7s15.2-5.07,16.46-11.7Z" transform="translate(93.91 140.15)"/><path class="cls-6" d="M123.72,121H109.84a12.81,12.81,0,0,1,0-25.61h13.88a12.81,12.81,0,0,1,0,25.61ZM109.84,97.62a10.61,10.61,0,1,0,0,21.22h13.88a10.61,10.61,0,1,0,0-21.22Z" transform="translate(93.91 140.15)"/><path class="cls-6" d="M174.9,121H161a12.81,12.81,0,0,1,0-25.61H174.9a12.81,12.81,0,0,1,0,25.61ZM161,97.62a10.61,10.61,0,0,0,0,21.22H174.9a10.61,10.61,0,0,0,0-21.22Z" transform="translate(93.91 140.15)"/><rect class="cls-6" x="184.22" y="101.65" width="15" height="2.19" transform="translate(79.64 312.78) rotate(-46.93)"/><rect class="cls-6" x="92.65" y="100.04" width="2.19" height="10.54" transform="translate(48.03 265.08) rotate(-56.32)"/><path class="cls-11" d="M195.09,102.31c0,24.48-24.26,44.31-54.18,44.31h0c-29.93,0-54.18-19.83-54.18-44.31V80.16c0-24.47,24.25-44.31,54.18-44.31h0c29.92,0,54.18,19.84,54.18,44.31Z" transform="translate(93.91 140.15)"/><path class="cls-8" d="M194.65,122.22c0,28.62-20.62,51.82-46.06,51.82h-11c-25.44,0-46.07-23.2-46.07-51.82v-4.94c0-28.62,20.63-51.82,46.07-51.82h11c25.44,0,46.06,23.2,46.06,51.82Z" transform="translate(93.91 140.15)"/><path class="cls-6" d="M120.8,110.07a5.85,5.85,0,0,1-5.85,5.84h0a5.85,5.85,0,0,1-5.85-5.84h0a5.84,5.84,0,0,1,5.85-5.85h0a5.84,5.84,0,0,1,5.85,5.85Z" transform="translate(93.91 140.15)"/><path class="cls-6" d="M179.29,110.07a5.85,5.85,0,0,1-5.84,5.84h0a5.85,5.85,0,0,1-5.86-5.84h0a5.85,5.85,0,0,1,5.86-5.85h0a5.84,5.84,0,0,1,5.84,5.85Z" transform="translate(93.91 140.15)"/><path class="cls-10" d="M126.27,137.49c1.27,6.62,8.14,11.69,16.46,11.69s15.2-5.07,16.47-11.69Z" transform="translate(93.91 140.15)"/><path class="cls-8" d="M93.75,100.74a14.24,14.24,0,0,0,0,28.15Z" transform="translate(93.91 140.15)"/><path class="cls-8" d="M192.46,128.89a14.24,14.24,0,0,0,0-28.15Z" transform="translate(93.91 140.15)"/><path class="cls-11" d="M203.89,56.14A22.48,22.48,0,0,1,181.4,78.62H138.8a22.47,22.47,0,0,1-22.48-22.48h0A22.47,22.47,0,0,1,138.8,33.66h42.6a22.48,22.48,0,0,1,22.49,22.48Z" transform="translate(93.91 140.15)"/><path class="cls-11" d="M200.67,60.4a22.48,22.48,0,0,1-24.51,20.25l-42.41-4A22.48,22.48,0,0,1,113.5,52.1h0A22.49,22.49,0,0,1,138,31.85l42.41,4A22.48,22.48,0,0,1,200.67,60.4Z" transform="translate(93.91 140.15)"/><path class="cls-11" d="M203.65,48.07C205,57.65,198,66.58,188.05,68l-52.56,7.56-3.21-22.3c-1.38-9.58,5.61-18.51,15.6-20l52.56-7.56Z" transform="translate(93.91 140.15)"/><g class="cls-12"><path class="cls-8" d="M219.37,321.54c-9.08-47.77-23-84.21-42.17-85.31a13,13,0,1,1,1.48-26c32.12,1.83,54.21,38.31,67.28,111.28Z" transform="translate(93.91 140.15)"/></g><g class="cls-13"><path class="cls-8" d="M62.1,321.54A346.9,346.9,0,0,1,73,278c8.21-24.77,18.62-41,31.3-41.74a13,13,0,1,0-1.48-26c-32.12,1.83-54.22,38.31-67.28,111.28Z" transform="translate(93.91 140.15)"/></g></g></g></g></svg>